/* XPM */
static char * cursor_xpm[] = {
"71 76 18 1",
" 	c None",
".	c #000000",
"+	c #1F1F1F",
"@	c #AFAFAF",
"#	c #CFCFCF",
"$	c #6F6F6F",
"%	c #0F0F0F",
"&	c #5F5F5F",
"*	c #FFFFFF",
"=	c #9F9F9F",
"-	c #4F4F4F",
";	c #DFDFDF",
">	c #8F8F8F",
",	c #BFBFBF",
"'	c #3F3F3F",
")	c #7F7F7F",
"!	c #EFEFEF",
"~	c #2F2F2F",
" ...                                                                   ",
".......                                                                ",
".........                                                              ",
"............                                                           ",
"...............                                                        ",
" ................                                                      ",
" .....+.............                                                   ",
" .....@#$%.............                                                ",
" .....&***=-.............                                              ",
"  ....%*****;>+.............                                           ",
"  .....,*******#&%.............                                        ",
"  .....$**********='.............                                      ",
"   ....+************;)+.............                                   ",
"   .....;**************,&%............                                 ",
"   .....>****************!=~.............                              ",
"    ....~*******************;$+.............                           ",
"    .....!*********************@&.............                         ",
"    .....=***********************!=~.............                      ",
"    .....-**************************#$%.............                   ",
"     ....%*****************************@-.............                 ",
"     .....@******************************!>+.............              ",
"     .....&*********************************#&%.............           ",
"      ....+************************************=-.............         ",
"      .....#*************************************;>+.............      ",
"      .....)****************************************,&%.............   ",
"       ....~******************************************!='............. ",
"       .....;********************************************;)+...........",
"       .....=***********************************************@&.........",
"       .....-*************************************************!=~......",
"        .....!*************&.+>!*********************************@.....",
"        .....@************,.....-@*******************************,.....",
"        .....&************>.......%$#****************************,.....",
"         ....%************#..........~>!*************************,.....",
"         .....#************+............-@***********************,.....",
"         .....$************&..............+$;********************,.....",
"          ....+************@....))+..........~=!*****************,.....",
"          .....;************....&**,&%..........&@***************,.....",
"          .....>************-...%****!='..........+$!************,.....",
"           ....'************=....,******;$+.........+!***********,.....",
"           .....!***********;....$*********@&........)***********,.....",
"           .....=************~...+***********!=~.....)***********,.....",
"           .....-************)....;*************;....)***********,.....",
"            ....%************#....>**************....)***********,.....",
"            .....@************+...~**************....)***********,.....",
"            .....$************&....!*************....)***********,.....",
"             ....+************@....=*************....)***********,.....",
"             .....#************....-*************....)***********,.....",
"             .....)************-...%*************....)***********,.....",
"              ....~************=....@************....)***********,.....",
"              .....;***********;....$************....)***********,.....",
"              .....=************~...+************....)***********,.....",
"              .....-************)....#***********....)***********,.....",
"               .....************#....>***********....)***********,.....",
"               .....@************+...................)***********,.....",
"               .....&************&...................)***********,.....",
"                ....%************@...................)***********,.....",
"                .....#************~.................%#***********,.....",
"                .....$************!>)))))))))))))))),************,.....",
"                 ....~*******************************************,.....",
"                 .....;******************************************,.....",
"                 .....>******************************************,.....",
"                  ....'******************************************,.....",
"                  .....!*****************************************,.....",
"                  .....=*****************************************,.....",
"                  .....&*****************************************,.....",
"                   ....%*****************************************,.....",
"                   .....@****************************************,.....",
"                   .....$****************************************,.....",
"                    ....+****************************************,.....",
"                    .....#***************************************,.....",
"                    .....$,,,,,,,,,,,,,,,,,,,,,,,,,,,,,,,,,,,,,,,>.....",
"                     ..................................................",
"                     ..................................................",
"                     ..................................................",
"                      .................................................",
"                      ................................................ "};
