/* XPM */
static char * wall2_xpm[] = {
"48 66 7 1",
" 	c #3A3A50",
".	c #E0D0B2",
"+	c #D0BE9C",
"@	c #CFE6F5",
"#	c #FFFFFF",
"$	c #B99E86",
"%	c #BAD2E0",
"                                                ",
"                                                ",
"                                                ",
"   ..........................................   ",
"   ..........................................   ",
"   ..........................................   ",
"   +++                                    +++   ",
"   +++                                    +++   ",
"   +++                                    +++   ",
"   +++   @@@@@@######@@@@@@@@@@@@######   $$$   ",
"   +++   @@@@@@######@@@@@@@@@@@@######   $$$   ",
"   +++   @@@@@@######@@@@@@@@@@@@######   $$$   ",
"   +++   @@@######@@@@@@@@@@@@@@@######   $$$   ",
"   +++   @@@######@@@@@@@@@@@@@@@######   $$$   ",
"   +++   @@@######@@@@@@@@@@@@@@@######   $$$   ",
"   +++   @@@######@@@@@@@@@@@@######@@@   $$$   ",
"   +++   @@@######@@@@@@@@@@@@######@@@   $$$   ",
"   +++   @@@######@@@@@@@@@@@@######@@@   $$$   ",
"   +++   ######@@@@@@@@@@@@@@@######@@@   $$$   ",
"   +++   ######@@@@@@@@@@@@@@@######@@@   $$$   ",
"   +++   ######@@@@@@@@@@@@@@@######@@@   $$$   ",
"   +++   ######@@@@@@@@@@@@######@@@@@@   $$$   ",
"   +++   ######@@@@@@@@@@@@######@@@@@@   $$$   ",
"   +++   ######@@@@@@@@@@@@######@@@@@@   $$$   ",
"   +++   ###@@@@@@@@@@@@@@@######@@@@@@   $$$   ",
"   +++   ###@@@@@@@@@@@@@@@######@@@@@@   $$$   ",
"   +++   ###@@@@@@@@@@@@@@@######@@@@@@   $$$   ",
"   +++   ###@@@@@@@@@@@@######@@@@@@@@@   $$$   ",
"   +++   ###@@@@@@@@@@@@######@@@@@@@@@   $$$   ",
"   +++   ###@@@@@@@@@@@@######@@@@@@@@@   $$$   ",
"   +++   @@@@@@@@@@@@@@@######@@@@@@@@@   $$$   ",
"   +++   @@@@@@@@@@@@@@@######@@@@@@@@@   $$$   ",
"   +++   @@@@@@@@@@@@@@@######@@@@@@@@@   $$$   ",
"   +++   @@@@@@@@@@@@######@@@@@@@@@@@@   $$$   ",
"   +++   @@@@@@@@@@@@######@@@@@@@@@@@@   $$$   ",
"   +++   @@@@@@@@@@@@######@@@@@@@@@@@@   $$$   ",
"   +++   @@@@@@@@@@@@######@@@@@@@@@@@@   $$$   ",
"   +++   @@@@@@@@@@@@######@@@@@@@@@@@@   $$$   ",
"   +++   @@@@@@@@@@@@######@@@@@@@@@@@@   $$$   ",
"   +++   @@@@@@@@@######@@@@@@@@@@@@@@@   $$$   ",
"   +++   @@@@@@@@@######@@@@@@@@@@@@@@@   $$$   ",
"   +++   @@@@@@@@@######@@@@@@@@@@@@@@@   $$$   ",
"   +++   @@@@@@@@@######@@@@@@@@@@@@@@@   $$$   ",
"   +++   @@@@@@@@@######@@@@@@@@@@@@@@@   $$$   ",
"   +++   @@@@@@@@@######@@@@@@@@@@@@@@@   $$$   ",
"   +++   %%%%%%######%%%%%%%%%%%%%%%%%%   $$$   ",
"   +++   %%%%%%######%%%%%%%%%%%%%%%%%%   $$$   ",
"   +++   %%%%%%######%%%%%%%%%%%%%%%%%%   $$$   ",
"   +++   %%%%%%######%%%%%%%%%%%%%%%%%%   $$$   ",
"   +++   %%%%%%######%%%%%%%%%%%%%%%%%%   $$$   ",
"   +++   %%%%%%######%%%%%%%%%%%%%%%%%%   $$$   ",
"   +++   %%%######%%%%%%%%%%%%%%%%%%%%%   $$$   ",
"   +++   %%%######%%%%%%%%%%%%%%%%%%%%%   $$$   ",
"   +++   %%%######%%%%%%%%%%%%%%%%%%%%%   $$$   ",
"   +++   %%%######%%%%%%%%%%%%%%%%%%%%%   $$$   ",
"   +++   %%%######%%%%%%%%%%%%%%%%%%%%%   $$$   ",
"   +++   %%%######%%%%%%%%%%%%%%%%%%%%%   $$$   ",
"   +++                                    $$$   ",
"   +++                                    $$$   ",
"   +++                                    $$$   ",
"   $$$$$$$$$$$$$$$$$$$$$$$$$$$$$$$$$$$$$$$$$$   ",
"   $$$$$$$$$$$$$$$$$$$$$$$$$$$$$$$$$$$$$$$$$$   ",
"   $$$$$$$$$$$$$$$$$$$$$$$$$$$$$$$$$$$$$$$$$$   ",
"                                                ",
"                                                ",
"                                                "};
