/* XPM */
static char * wall_xpm[] = {
"144 99 14 1",
" 	c #3A3A50",
".	c #BBA085",
"+	c #C0854D",
"@	c #C07640",
"#	c #49425B",
"$	c #625245",
"%	c #C08C54",
"&	c #A2784B",
"*	c #7E6451",
"=	c #B6824C",
"-	c #886A4E",
";	c #91704D",
">	c #B99E86",
",	c #9C786B",
"                                                                                                                                                ",
"                                                                                                                                                ",
"                                                                                                                                                ",
"   ..........................................................................................................................................   ",
"   ..........................................................................................................................................   ",
"   ..........................................................................................................................................   ",
"   ..........................................................................................................................................   ",
"   ..........................................................................................................................................   ",
"   ..........................................................................................................................................   ",
"   ..........................................................................................................................................   ",
"   ..........................................................................................................................................   ",
"   ..........................................................................................................................................   ",
"   ..........................................................................................................................................   ",
"   ..........................................................................................................................................   ",
"   ..........................................................................................................................................   ",
"   ..........................................................................................................................................   ",
"   ..........................................................................................................................................   ",
"   ..........................................................................................................................................   ",
"                                                                                                                                                ",
"                                                                                                                                                ",
"                                                                                                                                                ",
"   +++++++++@@@+++++++++###+++++++++@@@+++++++++###+++++++++@@@+++++++++###+++++++++@@@+++++++++###+++++++++@@@+++++++++###+++++++++@@@++++++   ",
"   +++++++++@@@+++++++++###+++++++++@@@+++++++++###+++++++++@@@+++++++++###+++++++++@@@+++++++++###+++++++++@@@+++++++++###+++++++++@@@++++++   ",
"   +++++++++@@@+++++++++###+++++++++@@@+++++++++###+++++++++@@@+++++++++###+++++++++@@@+++++++++###+++++++++@@@+++++++++###+++++++++@@@++++++   ",
"   +++++++++@@@+++++++++$$$+++++++++@@@+++++++++$$$+++++++++@@@+++++++++$$$+++++++++@@@+++++++++$$$+++++++++@@@+++++++++$$$+++++++++@@@++++++   ",
"   +++++++++@@@+++++++++$$$+++++++++@@@+++++++++$$$+++++++++@@@+++++++++$$$+++++++++@@@+++++++++$$$+++++++++@@@+++++++++$$$+++++++++@@@++++++   ",
"   +++++++++@@@+++++++++$$$+++++++++@@@+++++++++$$$+++++++++@@@+++++++++$$$+++++++++@@@+++++++++$$$+++++++++@@@+++++++++$$$+++++++++@@@++++++   ",
"   %%%%%%%%%&&&%%%%%%%%%***%%%%%%%%%&&&%%%%%%%%%***%%%%%%%%%&&&%%%%%%%%%***%%%%%%%%%&&&%%%%%%%%%***%%%%%%%%%&&&%%%%%%%%%***%%%%%%%%%&&&%%%%%%   ",
"   %%%%%%%%%&&&%%%%%%%%%***%%%%%%%%%&&&%%%%%%%%%***%%%%%%%%%&&&%%%%%%%%%***%%%%%%%%%&&&%%%%%%%%%***%%%%%%%%%&&&%%%%%%%%%***%%%%%%%%%&&&%%%%%%   ",
"   %%%%%%%%%&&&%%%%%%%%%***%%%%%%%%%&&&%%%%%%%%%***%%%%%%%%%&&&%%%%%%%%%***%%%%%%%%%&&&%%%%%%%%%***%%%%%%%%%&&&%%%%%%%%%***%%%%%%%%%&&&%%%%%%   ",
"   %%%%%%%%%===%%%%%%%%%---%%%%%%%%%&&&%%%%%%%%%---%%%%%%%%%===%%%%%%%%%---%%%%%%%%%&&&%%%%%%%%%---%%%%%%%%%===%%%%%%%%%---%%%%%%%%%&&&%%%%%%   ",
"   %%%%%%%%%===%%%%%%%%%---%%%%%%%%%&&&%%%%%%%%%---%%%%%%%%%===%%%%%%%%%---%%%%%%%%%&&&%%%%%%%%%---%%%%%%%%%===%%%%%%%%%---%%%%%%%%%&&&%%%%%%   ",
"   %%%%%%%%%===%%%%%%%%%---%%%%%%%%%&&&%%%%%%%%%---%%%%%%%%%===%%%%%%%%%---%%%%%%%%%&&&%%%%%%%%%---%%%%%%%%%===%%%%%%%%%---%%%%%%%%%&&&%%%%%%   ",
"   %%%%%%%%%%%%%%%%%%%%%;;;%%%%%%%%%&&&%%%%%%%%%;;;%%%%%%%%%%%%%%%%%%%%%;;;%%%%%%%%%&&&%%%%%%%%%;;;%%%%%%%%%%%%%%%%%%%%%;;;%%%%%%%%%&&&%%%%%%   ",
"   %%%%%%%%%%%%%%%%%%%%%;;;%%%%%%%%%&&&%%%%%%%%%;;;%%%%%%%%%%%%%%%%%%%%%;;;%%%%%%%%%&&&%%%%%%%%%;;;%%%%%%%%%%%%%%%%%%%%%;;;%%%%%%%%%&&&%%%%%%   ",
"   %%%%%%%%%%%%%%%%%%%%%;;;%%%%%%%%%&&&%%%%%%%%%;;;%%%%%%%%%%%%%%%%%%%%%;;;%%%%%%%%%&&&%%%%%%%%%;;;%%%%%%%%%%%%%%%%%%%%%;;;%%%%%%%%%&&&%%%%%%   ",
"   %%%%%%%%%===%%%%%%%%%;;;%%%%%%%%%&&&%%%%%%%%%;;;%%%%%%%%%===%%%%%%%%%;;;%%%%%%%%%&&&%%%%%%%%%;;;%%%%%%%%%===%%%%%%%%%;;;%%%%%%%%%&&&%%%%%%   ",
"   %%%%%%%%%===%%%%%%%%%;;;%%%%%%%%%&&&%%%%%%%%%;;;%%%%%%%%%===%%%%%%%%%;;;%%%%%%%%%&&&%%%%%%%%%;;;%%%%%%%%%===%%%%%%%%%;;;%%%%%%%%%&&&%%%%%%   ",
"   %%%%%%%%%===%%%%%%%%%;;;%%%%%%%%%&&&%%%%%%%%%;;;%%%%%%%%%===%%%%%%%%%;;;%%%%%%%%%&&&%%%%%%%%%;;;%%%%%%%%%===%%%%%%%%%;;;%%%%%%%%%&&&%%%%%%   ",
"   %%%%%%%%%&&&%%%%%%%%%;;;%%%%%%%%%===%%%%%%%%%***%%%%%%%%%&&&%%%%%%%%%;;;%%%%%%%%%===%%%%%%%%%***%%%%%%%%%&&&%%%%%%%%%;;;%%%%%%%%%===%%%%%%   ",
"   %%%%%%%%%&&&%%%%%%%%%;;;%%%%%%%%%===%%%%%%%%%***%%%%%%%%%&&&%%%%%%%%%;;;%%%%%%%%%===%%%%%%%%%***%%%%%%%%%&&&%%%%%%%%%;;;%%%%%%%%%===%%%%%%   ",
"   %%%%%%%%%&&&%%%%%%%%%;;;%%%%%%%%%===%%%%%%%%%***%%%%%%%%%&&&%%%%%%%%%;;;%%%%%%%%%===%%%%%%%%%***%%%%%%%%%&&&%%%%%%%%%;;;%%%%%%%%%===%%%%%%   ",
"   %%%%%%%%%&&&%%%%%%%%%;;;%%%%%%%%%===%%%%%%%%%$$$%%%%%%%%%&&&%%%%%%%%%;;;%%%%%%%%%===%%%%%%%%%$$$%%%%%%%%%&&&%%%%%%%%%;;;%%%%%%%%%===%%%%%%   ",
"   %%%%%%%%%&&&%%%%%%%%%;;;%%%%%%%%%===%%%%%%%%%$$$%%%%%%%%%&&&%%%%%%%%%;;;%%%%%%%%%===%%%%%%%%%$$$%%%%%%%%%&&&%%%%%%%%%;;;%%%%%%%%%===%%%%%%   ",
"   %%%%%%%%%&&&%%%%%%%%%;;;%%%%%%%%%===%%%%%%%%%$$$%%%%%%%%%&&&%%%%%%%%%;;;%%%%%%%%%===%%%%%%%%%$$$%%%%%%%%%&&&%%%%%%%%%;;;%%%%%%%%%===%%%%%%   ",
"   %%%%%%%%%&&&%%%%%%%%%&&&%%%%%%%%%===%%%%%%%%%$$$%%%%%%%%%&&&%%%%%%%%%&&&%%%%%%%%%===%%%%%%%%%$$$%%%%%%%%%&&&%%%%%%%%%&&&%%%%%%%%%===%%%%%%   ",
"   %%%%%%%%%&&&%%%%%%%%%&&&%%%%%%%%%===%%%%%%%%%$$$%%%%%%%%%&&&%%%%%%%%%&&&%%%%%%%%%===%%%%%%%%%$$$%%%%%%%%%&&&%%%%%%%%%&&&%%%%%%%%%===%%%%%%   ",
"   %%%%%%%%%&&&%%%%%%%%%&&&%%%%%%%%%===%%%%%%%%%$$$%%%%%%%%%&&&%%%%%%%%%&&&%%%%%%%%%===%%%%%%%%%$$$%%%%%%%%%&&&%%%%%%%%%&&&%%%%%%%%%===%%%%%%   ",
"   %%%%%%%%%&&&%%%%%%%%%===%%%%%%%%%===%%%%%%%%%$$$%%%%%%%%%&&&%%%%%%%%%===%%%%%%%%%===%%%%%%%%%$$$%%%%%%%%%&&&%%%%%%%%%===%%%%%%%%%===%%%%%%   ",
"   %%%%%%%%%&&&%%%%%%%%%===%%%%%%%%%===%%%%%%%%%$$$%%%%%%%%%&&&%%%%%%%%%===%%%%%%%%%===%%%%%%%%%$$$%%%%%%%%%&&&%%%%%%%%%===%%%%%%%%%===%%%%%%   ",
"   %%%%%%%%%&&&%%%%%%%%%===%%%%%%%%%===%%%%%%%%%$$$%%%%%%%%%&&&%%%%%%%%%===%%%%%%%%%===%%%%%%%%%$$$%%%%%%%%%&&&%%%%%%%%%===%%%%%%%%%===%%%%%%   ",
"   %%%%%%%%%&&&%%%%%%%%%===%%%%%%%%%===%%%%%%%%%;;;%%%%%%%%%&&&%%%%%%%%%===%%%%%%%%%===%%%%%%%%%;;;%%%%%%%%%&&&%%%%%%%%%===%%%%%%%%%===%%%%%%   ",
"   %%%%%%%%%&&&%%%%%%%%%===%%%%%%%%%===%%%%%%%%%;;;%%%%%%%%%&&&%%%%%%%%%===%%%%%%%%%===%%%%%%%%%;;;%%%%%%%%%&&&%%%%%%%%%===%%%%%%%%%===%%%%%%   ",
"   %%%%%%%%%&&&%%%%%%%%%===%%%%%%%%%===%%%%%%%%%;;;%%%%%%%%%&&&%%%%%%%%%===%%%%%%%%%===%%%%%%%%%;;;%%%%%%%%%&&&%%%%%%%%%===%%%%%%%%%===%%%%%%   ",
"   %%%%%%%%%&&&%%%%%%%%%;;;%%%%%%%%%&&&%%%%%%%%%;;;%%%%%%%%%&&&%%%%%%%%%;;;%%%%%%%%%&&&%%%%%%%%%;;;%%%%%%%%%&&&%%%%%%%%%;;;%%%%%%%%%&&&%%%%%%   ",
"   %%%%%%%%%&&&%%%%%%%%%;;;%%%%%%%%%&&&%%%%%%%%%;;;%%%%%%%%%&&&%%%%%%%%%;;;%%%%%%%%%&&&%%%%%%%%%;;;%%%%%%%%%&&&%%%%%%%%%;;;%%%%%%%%%&&&%%%%%%   ",
"   %%%%%%%%%&&&%%%%%%%%%;;;%%%%%%%%%&&&%%%%%%%%%;;;%%%%%%%%%&&&%%%%%%%%%;;;%%%%%%%%%&&&%%%%%%%%%;;;%%%%%%%%%&&&%%%%%%%%%;;;%%%%%%%%%&&&%%%%%%   ",
"   %%%%%%%%%&&&%%%%%%%%%***%%%%%%%%%&&&%%%%%%%%%;;;%%%%%%%%%&&&%%%%%%%%%***%%%%%%%%%&&&%%%%%%%%%;;;%%%%%%%%%&&&%%%%%%%%%***%%%%%%%%%&&&%%%%%%   ",
"   %%%%%%%%%&&&%%%%%%%%%***%%%%%%%%%&&&%%%%%%%%%;;;%%%%%%%%%&&&%%%%%%%%%***%%%%%%%%%&&&%%%%%%%%%;;;%%%%%%%%%&&&%%%%%%%%%***%%%%%%%%%&&&%%%%%%   ",
"   %%%%%%%%%&&&%%%%%%%%%***%%%%%%%%%&&&%%%%%%%%%;;;%%%%%%%%%&&&%%%%%%%%%***%%%%%%%%%&&&%%%%%%%%%;;;%%%%%%%%%&&&%%%%%%%%%***%%%%%%%%%&&&%%%%%%   ",
"   %%%%%%%%%&&&%%%%%%%%%$$$%%%%%%%%%&&&%%%%%%%%%&&&%%%%%%%%%&&&%%%%%%%%%$$$%%%%%%%%%&&&%%%%%%%%%&&&%%%%%%%%%&&&%%%%%%%%%$$$%%%%%%%%%&&&%%%%%%   ",
"   %%%%%%%%%&&&%%%%%%%%%$$$%%%%%%%%%&&&%%%%%%%%%&&&%%%%%%%%%&&&%%%%%%%%%$$$%%%%%%%%%&&&%%%%%%%%%&&&%%%%%%%%%&&&%%%%%%%%%$$$%%%%%%%%%&&&%%%%%%   ",
"   %%%%%%%%%&&&%%%%%%%%%$$$%%%%%%%%%&&&%%%%%%%%%&&&%%%%%%%%%&&&%%%%%%%%%$$$%%%%%%%%%&&&%%%%%%%%%&&&%%%%%%%%%&&&%%%%%%%%%$$$%%%%%%%%%&&&%%%%%%   ",
"   %%%%%%%%%&&&%%%%%%%%%$$$%%%%%%%%%&&&%%%%%%%%%===%%%%%%%%%&&&%%%%%%%%%$$$%%%%%%%%%&&&%%%%%%%%%===%%%%%%%%%&&&%%%%%%%%%$$$%%%%%%%%%&&&%%%%%%   ",
"   %%%%%%%%%&&&%%%%%%%%%$$$%%%%%%%%%&&&%%%%%%%%%===%%%%%%%%%&&&%%%%%%%%%$$$%%%%%%%%%&&&%%%%%%%%%===%%%%%%%%%&&&%%%%%%%%%$$$%%%%%%%%%&&&%%%%%%   ",
"   %%%%%%%%%&&&%%%%%%%%%$$$%%%%%%%%%&&&%%%%%%%%%===%%%%%%%%%&&&%%%%%%%%%$$$%%%%%%%%%&&&%%%%%%%%%===%%%%%%%%%&&&%%%%%%%%%$$$%%%%%%%%%&&&%%%%%%   ",
"   %%%%%%%%%&&&%%%%%%%%%$$$%%%%%%%%%===%%%%%%%%%&&&%%%%%%%%%&&&%%%%%%%%%$$$%%%%%%%%%===%%%%%%%%%&&&%%%%%%%%%&&&%%%%%%%%%$$$%%%%%%%%%===%%%%%%   ",
"   %%%%%%%%%&&&%%%%%%%%%$$$%%%%%%%%%===%%%%%%%%%&&&%%%%%%%%%&&&%%%%%%%%%$$$%%%%%%%%%===%%%%%%%%%&&&%%%%%%%%%&&&%%%%%%%%%$$$%%%%%%%%%===%%%%%%   ",
"   %%%%%%%%%&&&%%%%%%%%%$$$%%%%%%%%%===%%%%%%%%%&&&%%%%%%%%%&&&%%%%%%%%%$$$%%%%%%%%%===%%%%%%%%%&&&%%%%%%%%%&&&%%%%%%%%%$$$%%%%%%%%%===%%%%%%   ",
"   %%%%%%%%%===%%%%%%%%%$$$%%%%%%%%%%%%%%%%%%%%%;;;%%%%%%%%%===%%%%%%%%%$$$%%%%%%%%%%%%%%%%%%%%%;;;%%%%%%%%%===%%%%%%%%%$$$%%%%%%%%%%%%%%%%%%   ",
"   %%%%%%%%%===%%%%%%%%%$$$%%%%%%%%%%%%%%%%%%%%%;;;%%%%%%%%%===%%%%%%%%%$$$%%%%%%%%%%%%%%%%%%%%%;;;%%%%%%%%%===%%%%%%%%%$$$%%%%%%%%%%%%%%%%%%   ",
"   %%%%%%%%%===%%%%%%%%%$$$%%%%%%%%%%%%%%%%%%%%%;;;%%%%%%%%%===%%%%%%%%%$$$%%%%%%%%%%%%%%%%%%%%%;;;%%%%%%%%%===%%%%%%%%%$$$%%%%%%%%%%%%%%%%%%   ",
"   %%%%%%%%%===%%%%%%%%%***%%%%%%%%%===%%%%%%%%%;;;%%%%%%%%%===%%%%%%%%%***%%%%%%%%%===%%%%%%%%%;;;%%%%%%%%%===%%%%%%%%%***%%%%%%%%%===%%%%%%   ",
"   %%%%%%%%%===%%%%%%%%%***%%%%%%%%%===%%%%%%%%%;;;%%%%%%%%%===%%%%%%%%%***%%%%%%%%%===%%%%%%%%%;;;%%%%%%%%%===%%%%%%%%%***%%%%%%%%%===%%%%%%   ",
"   %%%%%%%%%===%%%%%%%%%***%%%%%%%%%===%%%%%%%%%;;;%%%%%%%%%===%%%%%%%%%***%%%%%%%%%===%%%%%%%%%;;;%%%%%%%%%===%%%%%%%%%***%%%%%%%%%===%%%%%%   ",
"   %%%%%%%%%===%%%%%%%%%;;;%%%%%%%%%&&&%%%%%%%%%;;;%%%%%%%%%===%%%%%%%%%;;;%%%%%%%%%&&&%%%%%%%%%;;;%%%%%%%%%===%%%%%%%%%;;;%%%%%%%%%&&&%%%%%%   ",
"   %%%%%%%%%===%%%%%%%%%;;;%%%%%%%%%&&&%%%%%%%%%;;;%%%%%%%%%===%%%%%%%%%;;;%%%%%%%%%&&&%%%%%%%%%;;;%%%%%%%%%===%%%%%%%%%;;;%%%%%%%%%&&&%%%%%%   ",
"   %%%%%%%%%===%%%%%%%%%;;;%%%%%%%%%&&&%%%%%%%%%;;;%%%%%%%%%===%%%%%%%%%;;;%%%%%%%%%&&&%%%%%%%%%;;;%%%%%%%%%===%%%%%%%%%;;;%%%%%%%%%&&&%%%%%%   ",
"   %%%%%%%%%&&&%%%%%%%%%---%%%%%%%%%&&&%%%%%%%%%---%%%%%%%%%&&&%%%%%%%%%---%%%%%%%%%&&&%%%%%%%%%---%%%%%%%%%&&&%%%%%%%%%---%%%%%%%%%&&&%%%%%%   ",
"   %%%%%%%%%&&&%%%%%%%%%---%%%%%%%%%&&&%%%%%%%%%---%%%%%%%%%&&&%%%%%%%%%---%%%%%%%%%&&&%%%%%%%%%---%%%%%%%%%&&&%%%%%%%%%---%%%%%%%%%&&&%%%%%%   ",
"   %%%%%%%%%&&&%%%%%%%%%---%%%%%%%%%&&&%%%%%%%%%---%%%%%%%%%&&&%%%%%%%%%---%%%%%%%%%&&&%%%%%%%%%---%%%%%%%%%&&&%%%%%%%%%---%%%%%%%%%&&&%%%%%%   ",
"   %%%%%%%%%&&&%%%%%%%%%***%%%%%%%%%&&&%%%%%%%%%***%%%%%%%%%&&&%%%%%%%%%***%%%%%%%%%&&&%%%%%%%%%***%%%%%%%%%&&&%%%%%%%%%***%%%%%%%%%&&&%%%%%%   ",
"   %%%%%%%%%&&&%%%%%%%%%***%%%%%%%%%&&&%%%%%%%%%***%%%%%%%%%&&&%%%%%%%%%***%%%%%%%%%&&&%%%%%%%%%***%%%%%%%%%&&&%%%%%%%%%***%%%%%%%%%&&&%%%%%%   ",
"   %%%%%%%%%&&&%%%%%%%%%***%%%%%%%%%&&&%%%%%%%%%***%%%%%%%%%&&&%%%%%%%%%***%%%%%%%%%&&&%%%%%%%%%***%%%%%%%%%&&&%%%%%%%%%***%%%%%%%%%&&&%%%%%%   ",
"   +++++++++@@@+++++++++$$$+++++++++@@@+++++++++$$$+++++++++@@@+++++++++$$$+++++++++@@@+++++++++$$$+++++++++@@@+++++++++$$$+++++++++@@@++++++   ",
"   +++++++++@@@+++++++++$$$+++++++++@@@+++++++++$$$+++++++++@@@+++++++++$$$+++++++++@@@+++++++++$$$+++++++++@@@+++++++++$$$+++++++++@@@++++++   ",
"   +++++++++@@@+++++++++$$$+++++++++@@@+++++++++$$$+++++++++@@@+++++++++$$$+++++++++@@@+++++++++$$$+++++++++@@@+++++++++$$$+++++++++@@@++++++   ",
"   @@@@@@@@@@@@@@@@@@@@@###@@@@@@@@@@@@@@@@@@@@@###@@@@@@@@@@@@@@@@@@@@@###@@@@@@@@@@@@@@@@@@@@@###@@@@@@@@@@@@@@@@@@@@@###@@@@@@@@@@@@@@@@@@   ",
"   @@@@@@@@@@@@@@@@@@@@@###@@@@@@@@@@@@@@@@@@@@@###@@@@@@@@@@@@@@@@@@@@@###@@@@@@@@@@@@@@@@@@@@@###@@@@@@@@@@@@@@@@@@@@@###@@@@@@@@@@@@@@@@@@   ",
"   @@@@@@@@@@@@@@@@@@@@@###@@@@@@@@@@@@@@@@@@@@@###@@@@@@@@@@@@@@@@@@@@@###@@@@@@@@@@@@@@@@@@@@@###@@@@@@@@@@@@@@@@@@@@@###@@@@@@@@@@@@@@@@@@   ",
"   >>>>>>>>>>>>>>>>>>>>>>>>>>>>>>>>>>>>>>>>>>>>>>>>>>>>>>>>>>>>>>>>>>>>>>>>>>>>>>>>>>>>>>>>>>>>>>>>>>>>>>>>>>>>>>>>>>>>>>>>>>>>>>>>>>>>>>>>>>   ",
"   >>>>>>>>>>>>>>>>>>>>>>>>>>>>>>>>>>>>>>>>>>>>>>>>>>>>>>>>>>>>>>>>>>>>>>>>>>>>>>>>>>>>>>>>>>>>>>>>>>>>>>>>>>>>>>>>>>>>>>>>>>>>>>>>>>>>>>>>>>   ",
"   >>>>>>>>>>>>>>>>>>>>>>>>>>>>>>>>>>>>>>>>>>>>>>>>>>>>>>>>>>>>>>>>>>>>>>>>>>>>>>>>>>>>>>>>>>>>>>>>>>>>>>>>>>>>>>>>>>>>>>>>>>>>>>>>>>>>>>>>>>   ",
"   ,,,,,,,,,,,,,,,,,,,,,,,,,,,,,,,,,,,,,,,,,,,,,,,,,,,,,,,,,,,,,,,,,,,,,,,,,,,,,,,,,,,,,,,,,,,,,,,,,,,,,,,,,,,,,,,,,,,,,,,,,,,,,,,,,,,,,,,,,,   ",
"   ,,,,,,,,,,,,,,,,,,,,,,,,,,,,,,,,,,,,,,,,,,,,,,,,,,,,,,,,,,,,,,,,,,,,,,,,,,,,,,,,,,,,,,,,,,,,,,,,,,,,,,,,,,,,,,,,,,,,,,,,,,,,,,,,,,,,,,,,,,   ",
"   ,,,,,,,,,,,,,,,,,,,,,,,,,,,,,,,,,,,,,,,,,,,,,,,,,,,,,,,,,,,,,,,,,,,,,,,,,,,,,,,,,,,,,,,,,,,,,,,,,,,,,,,,,,,,,,,,,,,,,,,,,,,,,,,,,,,,,,,,,,   ",
"                                                                                                                                                ",
"                                                                                                                                                ",
"                                                                                                                                                "};
