/* XPM */
static char * so_wall_xpm[] = {
"93 93 6 1",
" 	c #83B5B9",
".	c #6E92A2",
"+	c #B0DAD7",
"@	c #BDF1E5",
"#	c #7EA9B0",
"$	c #A4D5D5",
"                  ...++++++...               ...                  ...++++++...               ",
"                  ...++++++...               ...                  ...++++++...               ",
"                  ...++++++...               ...                  ...++++++...               ",
"                  ...++++++...               ...                  ...++++++...               ",
"                  ...++++++...               ...                  ...++++++...               ",
"                  ...++++++...               ...                  ...++++++...               ",
"                  ...++++++...               ...                  ...++++++...               ",
"                  ...++++++...               ...                  ...++++++...               ",
"                  ...++++++...               ...                  ...++++++...               ",
"                  ...+++++++++...            ...                  ...+++++++++...            ",
"                  ...+++++++++...            ...                  ...+++++++++...            ",
"                  ...+++++++++...            ...                  ...+++++++++...            ",
"               ...+++++++++++++++...         ...               ...+++++++++++++++...         ",
"               ...+++++++++++++++...         ...               ...+++++++++++++++...         ",
"               ...+++++++++++++++...         ...               ...+++++++++++++++...         ",
"            ...+++++++++++++++++++++............            ...+++++++++++++++++++++.........",
"            ...+++++++++++++++++++++............            ...+++++++++++++++++++++.........",
"            ...+++++++++++++++++++++............            ...+++++++++++++++++++++.........",
"............+++++++++++++++++++++++++++++++++...............+++++++++++++++++++++++++++++++++",
"............+++++++++++++++++++++++++++++++++...............+++++++++++++++++++++++++++++++++",
"............+++++++++++++++++++++++++++++++++...............+++++++++++++++++++++++++++++++++",
"++++++++++++++++++@@@@@@@@@@@@@@@@@@@@@@@@@@@###@@@@@@@@@@@@@@@@@@@@@@@@@@@@@@@@@@@@@@@@@@@@@",
"++++++++++++++++++@@@@@@@@@@@@@@@@@@@@@@@@@@@###@@@@@@@@@@@@@@@@@@@@@@@@@@@@@@@@@@@@@@@@@@@@@",
"++++++++++++++++++@@@@@@@@@@@@@@@@@@@@@@@@@@@###@@@@@@@@@@@@@@@@@@@@@@@@@@@@@@@@@@@@@@@@@@@@@",
"++++++++++++++++++@@@@@@@@@@@@@@@###############@@@@@@@@@@@@@@@@@@@@@@@@@@@@@@@@@############",
"++++++++++++++++++@@@@@@@@@@@@@@@###############@@@@@@@@@@@@@@@@@@@@@@@@@@@@@@@@@############",
"++++++++++++++++++@@@@@@@@@@@@@@@###############@@@@@@@@@@@@@@@@@@@@@@@@@@@@@@@@@############",
".........+++++++++@@@@@@@@@@@@###$$$$$$$$$$$$############@@@@@@@@@@@@@@@@@@@@@###$$$$$$$$$$$$",
".........+++++++++@@@@@@@@@@@@###$$$$$$$$$$$$############@@@@@@@@@@@@@@@@@@@@@###$$$$$$$$$$$$",
".........+++++++++@@@@@@@@@@@@###$$$$$$$$$$$$############@@@@@@@@@@@@@@@@@@@@@###$$$$$$$$$$$$",
"         ...++++++@@@@@@@@@###$$$$$$$$$$$$$$$###$$$$$$$$$###@@@@@@@@@@@@@@@###$$$$$$$$$$$$$$$",
"         ...++++++@@@@@@@@@###$$$$$$$$$$$$$$$###$$$$$$$$$###@@@@@@@@@@@@@@@###$$$$$$$$$$$$$$$",
"         ...++++++@@@@@@@@@###$$$$$$$$$$$$$$$###$$$$$$$$$###@@@@@@@@@@@@@@@###$$$$$$$$$$$$$$$",
"            ...+++@@@@@@###$$$$$$$$$$$$$$$$$$###$$$$$$$$$$$$###@@@@@@@@@###$$$$$$$$$$$$$$$$$$",
"            ...+++@@@@@@###$$$$$$$$$$$$$$$$$$###$$$$$$$$$$$$###@@@@@@@@@###$$$$$$$$$$$$$$$$$$",
"            ...+++@@@@@@###$$$$$$$$$$$$$$$$$$###$$$$$$$$$$$$###@@@@@@@@@###$$$$$$$$$$$$$$$$$$",
"               ...@@@@@@###$$$$$$$$$$$$$$$$$$###$$$$$$$$$$$$$$$###@@@@@@###$$$$$$$$$$$$$$$$$$",
"               ...@@@@@@###$$$$$$$$$$$$$$$$$$###$$$$$$$$$$$$$$$###@@@@@@###$$$$$$$$$$$$$$$$$$",
"               ...@@@@@@###$$$$$$$$$$$$$$$$$$###$$$$$$$$$$$$$$$###@@@@@@###$$$$$$$$$$$$$$$$$$",
"               ...@@@@@@###$$$$$$$$$$$$$$$$$$###$$$$$$$$$$$$$$$###@@@@@@###$$$$$$$$$$$$$$$$$$",
"               ...@@@@@@###$$$$$$$$$$$$$$$$$$###$$$$$$$$$$$$$$$###@@@@@@###$$$$$$$$$$$$$$$$$$",
"               ...@@@@@@###$$$$$$$$$$$$$$$$$$###$$$$$$$$$$$$$$$###@@@@@@###$$$$$$$$$$$$$$$$$$",
"               ...@@@@@@###$$$$$$$$$$$$$$$$$$###$$$$$$$$$$$$$$$###@@@@@@###$$$$$$$$$$$$$$$$$$",
"               ...@@@@@@###$$$$$$$$$$$$$$$$$$###$$$$$$$$$$$$$$$###@@@@@@###$$$$$$$$$$$$$$$$$$",
"               ...@@@@@@###$$$$$$$$$$$$$$$$$$###$$$$$$$$$$$$$$$###@@@@@@###$$$$$$$$$$$$$$$$$$",
"..................###########################################################################",
"..................###########################################################################",
"..................###########################################################################",
"                  ###@@@@@@###$$$$$$$$$$$$$$$###$$$$$$$$$$$$$$$$$$###@@@@@@###$$$$$$$$$$$$$$$",
"                  ###@@@@@@###$$$$$$$$$$$$$$$###$$$$$$$$$$$$$$$$$$###@@@@@@###$$$$$$$$$$$$$$$",
"                  ###@@@@@@###$$$$$$$$$$$$$$$###$$$$$$$$$$$$$$$$$$###@@@@@@###$$$$$$$$$$$$$$$",
"                  ###@@@@@@###$$$$$$$$$$$$$$$###$$$$$$$$$$$$$$$$$$###@@@@@@###$$$$$$$$$$$$$$$",
"                  ###@@@@@@###$$$$$$$$$$$$$$$###$$$$$$$$$$$$$$$$$$###@@@@@@###$$$$$$$$$$$$$$$",
"                  ###@@@@@@###$$$$$$$$$$$$$$$###$$$$$$$$$$$$$$$$$$###@@@@@@###$$$$$$$$$$$$$$$",
"                  ###@@@@@@###$$$$$$$$$$$$$$$###$$$$$$$$$$$$$$$$$$###@@@@@@###$$$$$$$$$$$$$$$",
"                  ###@@@@@@###$$$$$$$$$$$$$$$###$$$$$$$$$$$$$$$$$$###@@@@@@###$$$$$$$$$$$$$$$",
"                  ###@@@@@@###$$$$$$$$$$$$$$$###$$$$$$$$$$$$$$$$$$###@@@@@@###$$$$$$$$$$$$$$$",
"                  ###@@@@@@@@@###$$$$$$$$$$$$###$$$$$$$$$$$$$$$$$$###@@@@@@@@@###$$$$$$$$$$$$",
"                  ###@@@@@@@@@###$$$$$$$$$$$$###$$$$$$$$$$$$$$$$$$###@@@@@@@@@###$$$$$$$$$$$$",
"                  ###@@@@@@@@@###$$$$$$$$$$$$###$$$$$$$$$$$$$$$$$$###@@@@@@@@@###$$$$$$$$$$$$",
"               ...###@@@@@@@@@@@@###$$$$$$$$$###$$$$$$$$$$$$$$$###@@@@@@@@@@@@@@@###$$$$$$$$$",
"               ...###@@@@@@@@@@@@###$$$$$$$$$###$$$$$$$$$$$$$$$###@@@@@@@@@@@@@@@###$$$$$$$$$",
"               ...###@@@@@@@@@@@@###$$$$$$$$$###$$$$$$$$$$$$$$$###@@@@@@@@@@@@@@@###$$$$$$$$$",
"            ...+++@@@@@@@@@@@@@@@@@@############$$$$$$$$$$$$###@@@@@@@@@@@@@@@@@@@@@#########",
"            ...+++@@@@@@@@@@@@@@@@@@############$$$$$$$$$$$$###@@@@@@@@@@@@@@@@@@@@@#########",
"            ...+++@@@@@@@@@@@@@@@@@@############$$$$$$$$$$$$###@@@@@@@@@@@@@@@@@@@@@#########",
"............++++++@@@@@@@@@@@@@@@@@@@@@@@@@@@###############@@@@@@@@@@@@@@@@@@@@@@@@@@@@@@@@@",
"............++++++@@@@@@@@@@@@@@@@@@@@@@@@@@@###############@@@@@@@@@@@@@@@@@@@@@@@@@@@@@@@@@",
"............++++++@@@@@@@@@@@@@@@@@@@@@@@@@@@###############@@@@@@@@@@@@@@@@@@@@@@@@@@@@@@@@@",
"++++++++++++++++++@@@@@@@@@@@@@@@@@@@@@@@@@@@###@@@@@@@@@@@@@@@@@@@@@@@@@@@@@@@@@@@@@@@@@@@@@",
"++++++++++++++++++@@@@@@@@@@@@@@@@@@@@@@@@@@@###@@@@@@@@@@@@@@@@@@@@@@@@@@@@@@@@@@@@@@@@@@@@@",
"++++++++++++++++++@@@@@@@@@@@@@@@@@@@@@@@@@@@###@@@@@@@@@@@@@@@@@@@@@@@@@@@@@@@@@@@@@@@@@@@@@",
"++++++++++++++++++@@@@@@@@@@@@@@@###############@@@@@@@@@@@@@@@@@@@@@@@@@@@@@@@@@############",
"++++++++++++++++++@@@@@@@@@@@@@@@###############@@@@@@@@@@@@@@@@@@@@@@@@@@@@@@@@@############",
"++++++++++++++++++@@@@@@@@@@@@@@@###############@@@@@@@@@@@@@@@@@@@@@@@@@@@@@@@@@############",
".........+++++++++@@@@@@@@@@@@###$$$$$$$$$$$$############@@@@@@@@@@@@@@@@@@@@@###$$$$$$$$$$$$",
".........+++++++++@@@@@@@@@@@@###$$$$$$$$$$$$############@@@@@@@@@@@@@@@@@@@@@###$$$$$$$$$$$$",
".........+++++++++@@@@@@@@@@@@###$$$$$$$$$$$$############@@@@@@@@@@@@@@@@@@@@@###$$$$$$$$$$$$",
"         ...++++++@@@@@@@@@###$$$$$$$$$$$$$$$###$$$$$$$$$###@@@@@@@@@@@@@@@###$$$$$$$$$$$$$$$",
"         ...++++++@@@@@@@@@###$$$$$$$$$$$$$$$###$$$$$$$$$###@@@@@@@@@@@@@@@###$$$$$$$$$$$$$$$",
"         ...++++++@@@@@@@@@###$$$$$$$$$$$$$$$###$$$$$$$$$###@@@@@@@@@@@@@@@###$$$$$$$$$$$$$$$",
"            ...+++@@@@@@###$$$$$$$$$$$$$$$$$$###$$$$$$$$$$$$###@@@@@@@@@###$$$$$$$$$$$$$$$$$$",
"            ...+++@@@@@@###$$$$$$$$$$$$$$$$$$###$$$$$$$$$$$$###@@@@@@@@@###$$$$$$$$$$$$$$$$$$",
"            ...+++@@@@@@###$$$$$$$$$$$$$$$$$$###$$$$$$$$$$$$###@@@@@@@@@###$$$$$$$$$$$$$$$$$$",
"               ...@@@@@@###$$$$$$$$$$$$$$$$$$###$$$$$$$$$$$$$$$###@@@@@@###$$$$$$$$$$$$$$$$$$",
"               ...@@@@@@###$$$$$$$$$$$$$$$$$$###$$$$$$$$$$$$$$$###@@@@@@###$$$$$$$$$$$$$$$$$$",
"               ...@@@@@@###$$$$$$$$$$$$$$$$$$###$$$$$$$$$$$$$$$###@@@@@@###$$$$$$$$$$$$$$$$$$",
"               ...@@@@@@###$$$$$$$$$$$$$$$$$$###$$$$$$$$$$$$$$$###@@@@@@###$$$$$$$$$$$$$$$$$$",
"               ...@@@@@@###$$$$$$$$$$$$$$$$$$###$$$$$$$$$$$$$$$###@@@@@@###$$$$$$$$$$$$$$$$$$",
"               ...@@@@@@###$$$$$$$$$$$$$$$$$$###$$$$$$$$$$$$$$$###@@@@@@###$$$$$$$$$$$$$$$$$$",
"               ...@@@@@@###$$$$$$$$$$$$$$$$$$###$$$$$$$$$$$$$$$###@@@@@@###$$$$$$$$$$$$$$$$$$",
"               ...@@@@@@###$$$$$$$$$$$$$$$$$$###$$$$$$$$$$$$$$$###@@@@@@###$$$$$$$$$$$$$$$$$$",
"               ...@@@@@@###$$$$$$$$$$$$$$$$$$###$$$$$$$$$$$$$$$###@@@@@@###$$$$$$$$$$$$$$$$$$"};
