/* XPM */
static char * wall_xpm[] = {
"144 99 13 1",
" 	c #3A3A50",
".	c #BBA085",
"+	c #B0573C",
"@	c #AB4A36",
"#	c #56413C",
"$	c #B35E3F",
"%	c #8F5641",
"&	c #6F4D46",
"*	c #A25A40",
"=	c #785044",
"-	c #805343",
";	c #B99E86",
">	c #9C786B",
"                                                                                                                                                ",
"                                                                                                                                                ",
"                                                                                                                                                ",
"   ..........................................................................................................................................   ",
"   ..........................................................................................................................................   ",
"   ..........................................................................................................................................   ",
"   ..........................................................................................................................................   ",
"   ..........................................................................................................................................   ",
"   ..........................................................................................................................................   ",
"   ..........................................................................................................................................   ",
"   ..........................................................................................................................................   ",
"   ..........................................................................................................................................   ",
"   ..........................................................................................................................................   ",
"   ..........................................................................................................................................   ",
"   ..........................................................................................................................................   ",
"   ..........................................................................................................................................   ",
"   ..........................................................................................................................................   ",
"   ..........................................................................................................................................   ",
"                                                                                                                                                ",
"                                                                                                                                                ",
"                                                                                                                                                ",
"   +++++++++@@@+++++++++   +++++++++@@@+++++++++   +++++++++@@@+++++++++   +++++++++@@@+++++++++   +++++++++@@@+++++++++   +++++++++@@@++++++   ",
"   +++++++++@@@+++++++++   +++++++++@@@+++++++++   +++++++++@@@+++++++++   +++++++++@@@+++++++++   +++++++++@@@+++++++++   +++++++++@@@++++++   ",
"   +++++++++@@@+++++++++   +++++++++@@@+++++++++   +++++++++@@@+++++++++   +++++++++@@@+++++++++   +++++++++@@@+++++++++   +++++++++@@@++++++   ",
"   +++++++++@@@+++++++++###+++++++++@@@+++++++++###+++++++++@@@+++++++++###+++++++++@@@+++++++++###+++++++++@@@+++++++++###+++++++++@@@++++++   ",
"   +++++++++@@@+++++++++###+++++++++@@@+++++++++###+++++++++@@@+++++++++###+++++++++@@@+++++++++###+++++++++@@@+++++++++###+++++++++@@@++++++   ",
"   +++++++++@@@+++++++++###+++++++++@@@+++++++++###+++++++++@@@+++++++++###+++++++++@@@+++++++++###+++++++++@@@+++++++++###+++++++++@@@++++++   ",
"   $$$$$$$$$%%%$$$$$$$$$&&&$$$$$$$$$%%%$$$$$$$$$&&&$$$$$$$$$%%%$$$$$$$$$&&&$$$$$$$$$%%%$$$$$$$$$&&&$$$$$$$$$%%%$$$$$$$$$&&&$$$$$$$$$%%%$$$$$$   ",
"   $$$$$$$$$%%%$$$$$$$$$&&&$$$$$$$$$%%%$$$$$$$$$&&&$$$$$$$$$%%%$$$$$$$$$&&&$$$$$$$$$%%%$$$$$$$$$&&&$$$$$$$$$%%%$$$$$$$$$&&&$$$$$$$$$%%%$$$$$$   ",
"   $$$$$$$$$%%%$$$$$$$$$&&&$$$$$$$$$%%%$$$$$$$$$&&&$$$$$$$$$%%%$$$$$$$$$&&&$$$$$$$$$%%%$$$$$$$$$&&&$$$$$$$$$%%%$$$$$$$$$&&&$$$$$$$$$%%%$$$$$$   ",
"   $$$$$$$$$***$$$$$$$$$===$$$$$$$$$%%%$$$$$$$$$===$$$$$$$$$***$$$$$$$$$===$$$$$$$$$%%%$$$$$$$$$===$$$$$$$$$***$$$$$$$$$===$$$$$$$$$%%%$$$$$$   ",
"   $$$$$$$$$***$$$$$$$$$===$$$$$$$$$%%%$$$$$$$$$===$$$$$$$$$***$$$$$$$$$===$$$$$$$$$%%%$$$$$$$$$===$$$$$$$$$***$$$$$$$$$===$$$$$$$$$%%%$$$$$$   ",
"   $$$$$$$$$***$$$$$$$$$===$$$$$$$$$%%%$$$$$$$$$===$$$$$$$$$***$$$$$$$$$===$$$$$$$$$%%%$$$$$$$$$===$$$$$$$$$***$$$$$$$$$===$$$$$$$$$%%%$$$$$$   ",
"   $$$$$$$$$$$$$$$$$$$$$---$$$$$$$$$%%%$$$$$$$$$---$$$$$$$$$$$$$$$$$$$$$---$$$$$$$$$%%%$$$$$$$$$---$$$$$$$$$$$$$$$$$$$$$---$$$$$$$$$%%%$$$$$$   ",
"   $$$$$$$$$$$$$$$$$$$$$---$$$$$$$$$%%%$$$$$$$$$---$$$$$$$$$$$$$$$$$$$$$---$$$$$$$$$%%%$$$$$$$$$---$$$$$$$$$$$$$$$$$$$$$---$$$$$$$$$%%%$$$$$$   ",
"   $$$$$$$$$$$$$$$$$$$$$---$$$$$$$$$%%%$$$$$$$$$---$$$$$$$$$$$$$$$$$$$$$---$$$$$$$$$%%%$$$$$$$$$---$$$$$$$$$$$$$$$$$$$$$---$$$$$$$$$%%%$$$$$$   ",
"   $$$$$$$$$***$$$$$$$$$---$$$$$$$$$%%%$$$$$$$$$---$$$$$$$$$***$$$$$$$$$---$$$$$$$$$%%%$$$$$$$$$---$$$$$$$$$***$$$$$$$$$---$$$$$$$$$%%%$$$$$$   ",
"   $$$$$$$$$***$$$$$$$$$---$$$$$$$$$%%%$$$$$$$$$---$$$$$$$$$***$$$$$$$$$---$$$$$$$$$%%%$$$$$$$$$---$$$$$$$$$***$$$$$$$$$---$$$$$$$$$%%%$$$$$$   ",
"   $$$$$$$$$***$$$$$$$$$---$$$$$$$$$%%%$$$$$$$$$---$$$$$$$$$***$$$$$$$$$---$$$$$$$$$%%%$$$$$$$$$---$$$$$$$$$***$$$$$$$$$---$$$$$$$$$%%%$$$$$$   ",
"   $$$$$$$$$%%%$$$$$$$$$---$$$$$$$$$***$$$$$$$$$&&&$$$$$$$$$%%%$$$$$$$$$---$$$$$$$$$***$$$$$$$$$&&&$$$$$$$$$%%%$$$$$$$$$---$$$$$$$$$***$$$$$$   ",
"   $$$$$$$$$%%%$$$$$$$$$---$$$$$$$$$***$$$$$$$$$&&&$$$$$$$$$%%%$$$$$$$$$---$$$$$$$$$***$$$$$$$$$&&&$$$$$$$$$%%%$$$$$$$$$---$$$$$$$$$***$$$$$$   ",
"   $$$$$$$$$%%%$$$$$$$$$---$$$$$$$$$***$$$$$$$$$&&&$$$$$$$$$%%%$$$$$$$$$---$$$$$$$$$***$$$$$$$$$&&&$$$$$$$$$%%%$$$$$$$$$---$$$$$$$$$***$$$$$$   ",
"   $$$$$$$$$%%%$$$$$$$$$---$$$$$$$$$***$$$$$$$$$###$$$$$$$$$%%%$$$$$$$$$---$$$$$$$$$***$$$$$$$$$###$$$$$$$$$%%%$$$$$$$$$---$$$$$$$$$***$$$$$$   ",
"   $$$$$$$$$%%%$$$$$$$$$---$$$$$$$$$***$$$$$$$$$###$$$$$$$$$%%%$$$$$$$$$---$$$$$$$$$***$$$$$$$$$###$$$$$$$$$%%%$$$$$$$$$---$$$$$$$$$***$$$$$$   ",
"   $$$$$$$$$%%%$$$$$$$$$---$$$$$$$$$***$$$$$$$$$###$$$$$$$$$%%%$$$$$$$$$---$$$$$$$$$***$$$$$$$$$###$$$$$$$$$%%%$$$$$$$$$---$$$$$$$$$***$$$$$$   ",
"   $$$$$$$$$%%%$$$$$$$$$%%%$$$$$$$$$***$$$$$$$$$###$$$$$$$$$%%%$$$$$$$$$%%%$$$$$$$$$***$$$$$$$$$###$$$$$$$$$%%%$$$$$$$$$%%%$$$$$$$$$***$$$$$$   ",
"   $$$$$$$$$%%%$$$$$$$$$%%%$$$$$$$$$***$$$$$$$$$###$$$$$$$$$%%%$$$$$$$$$%%%$$$$$$$$$***$$$$$$$$$###$$$$$$$$$%%%$$$$$$$$$%%%$$$$$$$$$***$$$$$$   ",
"   $$$$$$$$$%%%$$$$$$$$$%%%$$$$$$$$$***$$$$$$$$$###$$$$$$$$$%%%$$$$$$$$$%%%$$$$$$$$$***$$$$$$$$$###$$$$$$$$$%%%$$$$$$$$$%%%$$$$$$$$$***$$$$$$   ",
"   $$$$$$$$$%%%$$$$$$$$$***$$$$$$$$$***$$$$$$$$$###$$$$$$$$$%%%$$$$$$$$$***$$$$$$$$$***$$$$$$$$$###$$$$$$$$$%%%$$$$$$$$$***$$$$$$$$$***$$$$$$   ",
"   $$$$$$$$$%%%$$$$$$$$$***$$$$$$$$$***$$$$$$$$$###$$$$$$$$$%%%$$$$$$$$$***$$$$$$$$$***$$$$$$$$$###$$$$$$$$$%%%$$$$$$$$$***$$$$$$$$$***$$$$$$   ",
"   $$$$$$$$$%%%$$$$$$$$$***$$$$$$$$$***$$$$$$$$$###$$$$$$$$$%%%$$$$$$$$$***$$$$$$$$$***$$$$$$$$$###$$$$$$$$$%%%$$$$$$$$$***$$$$$$$$$***$$$$$$   ",
"   $$$$$$$$$%%%$$$$$$$$$***$$$$$$$$$***$$$$$$$$$---$$$$$$$$$%%%$$$$$$$$$***$$$$$$$$$***$$$$$$$$$---$$$$$$$$$%%%$$$$$$$$$***$$$$$$$$$***$$$$$$   ",
"   $$$$$$$$$%%%$$$$$$$$$***$$$$$$$$$***$$$$$$$$$---$$$$$$$$$%%%$$$$$$$$$***$$$$$$$$$***$$$$$$$$$---$$$$$$$$$%%%$$$$$$$$$***$$$$$$$$$***$$$$$$   ",
"   $$$$$$$$$%%%$$$$$$$$$***$$$$$$$$$***$$$$$$$$$---$$$$$$$$$%%%$$$$$$$$$***$$$$$$$$$***$$$$$$$$$---$$$$$$$$$%%%$$$$$$$$$***$$$$$$$$$***$$$$$$   ",
"   $$$$$$$$$%%%$$$$$$$$$---$$$$$$$$$%%%$$$$$$$$$---$$$$$$$$$%%%$$$$$$$$$---$$$$$$$$$%%%$$$$$$$$$---$$$$$$$$$%%%$$$$$$$$$---$$$$$$$$$%%%$$$$$$   ",
"   $$$$$$$$$%%%$$$$$$$$$---$$$$$$$$$%%%$$$$$$$$$---$$$$$$$$$%%%$$$$$$$$$---$$$$$$$$$%%%$$$$$$$$$---$$$$$$$$$%%%$$$$$$$$$---$$$$$$$$$%%%$$$$$$   ",
"   $$$$$$$$$%%%$$$$$$$$$---$$$$$$$$$%%%$$$$$$$$$---$$$$$$$$$%%%$$$$$$$$$---$$$$$$$$$%%%$$$$$$$$$---$$$$$$$$$%%%$$$$$$$$$---$$$$$$$$$%%%$$$$$$   ",
"   $$$$$$$$$%%%$$$$$$$$$&&&$$$$$$$$$%%%$$$$$$$$$---$$$$$$$$$%%%$$$$$$$$$&&&$$$$$$$$$%%%$$$$$$$$$---$$$$$$$$$%%%$$$$$$$$$&&&$$$$$$$$$%%%$$$$$$   ",
"   $$$$$$$$$%%%$$$$$$$$$&&&$$$$$$$$$%%%$$$$$$$$$---$$$$$$$$$%%%$$$$$$$$$&&&$$$$$$$$$%%%$$$$$$$$$---$$$$$$$$$%%%$$$$$$$$$&&&$$$$$$$$$%%%$$$$$$   ",
"   $$$$$$$$$%%%$$$$$$$$$&&&$$$$$$$$$%%%$$$$$$$$$---$$$$$$$$$%%%$$$$$$$$$&&&$$$$$$$$$%%%$$$$$$$$$---$$$$$$$$$%%%$$$$$$$$$&&&$$$$$$$$$%%%$$$$$$   ",
"   $$$$$$$$$%%%$$$$$$$$$###$$$$$$$$$%%%$$$$$$$$$%%%$$$$$$$$$%%%$$$$$$$$$###$$$$$$$$$%%%$$$$$$$$$%%%$$$$$$$$$%%%$$$$$$$$$###$$$$$$$$$%%%$$$$$$   ",
"   $$$$$$$$$%%%$$$$$$$$$###$$$$$$$$$%%%$$$$$$$$$%%%$$$$$$$$$%%%$$$$$$$$$###$$$$$$$$$%%%$$$$$$$$$%%%$$$$$$$$$%%%$$$$$$$$$###$$$$$$$$$%%%$$$$$$   ",
"   $$$$$$$$$%%%$$$$$$$$$###$$$$$$$$$%%%$$$$$$$$$%%%$$$$$$$$$%%%$$$$$$$$$###$$$$$$$$$%%%$$$$$$$$$%%%$$$$$$$$$%%%$$$$$$$$$###$$$$$$$$$%%%$$$$$$   ",
"   $$$$$$$$$%%%$$$$$$$$$###$$$$$$$$$%%%$$$$$$$$$***$$$$$$$$$%%%$$$$$$$$$###$$$$$$$$$%%%$$$$$$$$$***$$$$$$$$$%%%$$$$$$$$$###$$$$$$$$$%%%$$$$$$   ",
"   $$$$$$$$$%%%$$$$$$$$$###$$$$$$$$$%%%$$$$$$$$$***$$$$$$$$$%%%$$$$$$$$$###$$$$$$$$$%%%$$$$$$$$$***$$$$$$$$$%%%$$$$$$$$$###$$$$$$$$$%%%$$$$$$   ",
"   $$$$$$$$$%%%$$$$$$$$$###$$$$$$$$$%%%$$$$$$$$$***$$$$$$$$$%%%$$$$$$$$$###$$$$$$$$$%%%$$$$$$$$$***$$$$$$$$$%%%$$$$$$$$$###$$$$$$$$$%%%$$$$$$   ",
"   $$$$$$$$$%%%$$$$$$$$$###$$$$$$$$$***$$$$$$$$$%%%$$$$$$$$$%%%$$$$$$$$$###$$$$$$$$$***$$$$$$$$$%%%$$$$$$$$$%%%$$$$$$$$$###$$$$$$$$$***$$$$$$   ",
"   $$$$$$$$$%%%$$$$$$$$$###$$$$$$$$$***$$$$$$$$$%%%$$$$$$$$$%%%$$$$$$$$$###$$$$$$$$$***$$$$$$$$$%%%$$$$$$$$$%%%$$$$$$$$$###$$$$$$$$$***$$$$$$   ",
"   $$$$$$$$$%%%$$$$$$$$$###$$$$$$$$$***$$$$$$$$$%%%$$$$$$$$$%%%$$$$$$$$$###$$$$$$$$$***$$$$$$$$$%%%$$$$$$$$$%%%$$$$$$$$$###$$$$$$$$$***$$$$$$   ",
"   $$$$$$$$$***$$$$$$$$$###$$$$$$$$$$$$$$$$$$$$$---$$$$$$$$$***$$$$$$$$$###$$$$$$$$$$$$$$$$$$$$$---$$$$$$$$$***$$$$$$$$$###$$$$$$$$$$$$$$$$$$   ",
"   $$$$$$$$$***$$$$$$$$$###$$$$$$$$$$$$$$$$$$$$$---$$$$$$$$$***$$$$$$$$$###$$$$$$$$$$$$$$$$$$$$$---$$$$$$$$$***$$$$$$$$$###$$$$$$$$$$$$$$$$$$   ",
"   $$$$$$$$$***$$$$$$$$$###$$$$$$$$$$$$$$$$$$$$$---$$$$$$$$$***$$$$$$$$$###$$$$$$$$$$$$$$$$$$$$$---$$$$$$$$$***$$$$$$$$$###$$$$$$$$$$$$$$$$$$   ",
"   $$$$$$$$$***$$$$$$$$$&&&$$$$$$$$$***$$$$$$$$$---$$$$$$$$$***$$$$$$$$$&&&$$$$$$$$$***$$$$$$$$$---$$$$$$$$$***$$$$$$$$$&&&$$$$$$$$$***$$$$$$   ",
"   $$$$$$$$$***$$$$$$$$$&&&$$$$$$$$$***$$$$$$$$$---$$$$$$$$$***$$$$$$$$$&&&$$$$$$$$$***$$$$$$$$$---$$$$$$$$$***$$$$$$$$$&&&$$$$$$$$$***$$$$$$   ",
"   $$$$$$$$$***$$$$$$$$$&&&$$$$$$$$$***$$$$$$$$$---$$$$$$$$$***$$$$$$$$$&&&$$$$$$$$$***$$$$$$$$$---$$$$$$$$$***$$$$$$$$$&&&$$$$$$$$$***$$$$$$   ",
"   $$$$$$$$$***$$$$$$$$$---$$$$$$$$$%%%$$$$$$$$$---$$$$$$$$$***$$$$$$$$$---$$$$$$$$$%%%$$$$$$$$$---$$$$$$$$$***$$$$$$$$$---$$$$$$$$$%%%$$$$$$   ",
"   $$$$$$$$$***$$$$$$$$$---$$$$$$$$$%%%$$$$$$$$$---$$$$$$$$$***$$$$$$$$$---$$$$$$$$$%%%$$$$$$$$$---$$$$$$$$$***$$$$$$$$$---$$$$$$$$$%%%$$$$$$   ",
"   $$$$$$$$$***$$$$$$$$$---$$$$$$$$$%%%$$$$$$$$$---$$$$$$$$$***$$$$$$$$$---$$$$$$$$$%%%$$$$$$$$$---$$$$$$$$$***$$$$$$$$$---$$$$$$$$$%%%$$$$$$   ",
"   $$$$$$$$$%%%$$$$$$$$$===$$$$$$$$$%%%$$$$$$$$$===$$$$$$$$$%%%$$$$$$$$$===$$$$$$$$$%%%$$$$$$$$$===$$$$$$$$$%%%$$$$$$$$$===$$$$$$$$$%%%$$$$$$   ",
"   $$$$$$$$$%%%$$$$$$$$$===$$$$$$$$$%%%$$$$$$$$$===$$$$$$$$$%%%$$$$$$$$$===$$$$$$$$$%%%$$$$$$$$$===$$$$$$$$$%%%$$$$$$$$$===$$$$$$$$$%%%$$$$$$   ",
"   $$$$$$$$$%%%$$$$$$$$$===$$$$$$$$$%%%$$$$$$$$$===$$$$$$$$$%%%$$$$$$$$$===$$$$$$$$$%%%$$$$$$$$$===$$$$$$$$$%%%$$$$$$$$$===$$$$$$$$$%%%$$$$$$   ",
"   $$$$$$$$$%%%$$$$$$$$$&&&$$$$$$$$$%%%$$$$$$$$$&&&$$$$$$$$$%%%$$$$$$$$$&&&$$$$$$$$$%%%$$$$$$$$$&&&$$$$$$$$$%%%$$$$$$$$$&&&$$$$$$$$$%%%$$$$$$   ",
"   $$$$$$$$$%%%$$$$$$$$$&&&$$$$$$$$$%%%$$$$$$$$$&&&$$$$$$$$$%%%$$$$$$$$$&&&$$$$$$$$$%%%$$$$$$$$$&&&$$$$$$$$$%%%$$$$$$$$$&&&$$$$$$$$$%%%$$$$$$   ",
"   $$$$$$$$$%%%$$$$$$$$$&&&$$$$$$$$$%%%$$$$$$$$$&&&$$$$$$$$$%%%$$$$$$$$$&&&$$$$$$$$$%%%$$$$$$$$$&&&$$$$$$$$$%%%$$$$$$$$$&&&$$$$$$$$$%%%$$$$$$   ",
"   +++++++++@@@+++++++++###+++++++++@@@+++++++++###+++++++++@@@+++++++++###+++++++++@@@+++++++++###+++++++++@@@+++++++++###+++++++++@@@++++++   ",
"   +++++++++@@@+++++++++###+++++++++@@@+++++++++###+++++++++@@@+++++++++###+++++++++@@@+++++++++###+++++++++@@@+++++++++###+++++++++@@@++++++   ",
"   +++++++++@@@+++++++++###+++++++++@@@+++++++++###+++++++++@@@+++++++++###+++++++++@@@+++++++++###+++++++++@@@+++++++++###+++++++++@@@++++++   ",
"   @@@@@@@@@@@@@@@@@@@@@   @@@@@@@@@@@@@@@@@@@@@   @@@@@@@@@@@@@@@@@@@@@   @@@@@@@@@@@@@@@@@@@@@   @@@@@@@@@@@@@@@@@@@@@   @@@@@@@@@@@@@@@@@@   ",
"   @@@@@@@@@@@@@@@@@@@@@   @@@@@@@@@@@@@@@@@@@@@   @@@@@@@@@@@@@@@@@@@@@   @@@@@@@@@@@@@@@@@@@@@   @@@@@@@@@@@@@@@@@@@@@   @@@@@@@@@@@@@@@@@@   ",
"   @@@@@@@@@@@@@@@@@@@@@   @@@@@@@@@@@@@@@@@@@@@   @@@@@@@@@@@@@@@@@@@@@   @@@@@@@@@@@@@@@@@@@@@   @@@@@@@@@@@@@@@@@@@@@   @@@@@@@@@@@@@@@@@@   ",
"   ;;;;;;;;;;;;;;;;;;;;;;;;;;;;;;;;;;;;;;;;;;;;;;;;;;;;;;;;;;;;;;;;;;;;;;;;;;;;;;;;;;;;;;;;;;;;;;;;;;;;;;;;;;;;;;;;;;;;;;;;;;;;;;;;;;;;;;;;;;   ",
"   ;;;;;;;;;;;;;;;;;;;;;;;;;;;;;;;;;;;;;;;;;;;;;;;;;;;;;;;;;;;;;;;;;;;;;;;;;;;;;;;;;;;;;;;;;;;;;;;;;;;;;;;;;;;;;;;;;;;;;;;;;;;;;;;;;;;;;;;;;;   ",
"   ;;;;;;;;;;;;;;;;;;;;;;;;;;;;;;;;;;;;;;;;;;;;;;;;;;;;;;;;;;;;;;;;;;;;;;;;;;;;;;;;;;;;;;;;;;;;;;;;;;;;;;;;;;;;;;;;;;;;;;;;;;;;;;;;;;;;;;;;;;   ",
"   >>>>>>>>>>>>>>>>>>>>>>>>>>>>>>>>>>>>>>>>>>>>>>>>>>>>>>>>>>>>>>>>>>>>>>>>>>>>>>>>>>>>>>>>>>>>>>>>>>>>>>>>>>>>>>>>>>>>>>>>>>>>>>>>>>>>>>>>>>   ",
"   >>>>>>>>>>>>>>>>>>>>>>>>>>>>>>>>>>>>>>>>>>>>>>>>>>>>>>>>>>>>>>>>>>>>>>>>>>>>>>>>>>>>>>>>>>>>>>>>>>>>>>>>>>>>>>>>>>>>>>>>>>>>>>>>>>>>>>>>>>   ",
"   >>>>>>>>>>>>>>>>>>>>>>>>>>>>>>>>>>>>>>>>>>>>>>>>>>>>>>>>>>>>>>>>>>>>>>>>>>>>>>>>>>>>>>>>>>>>>>>>>>>>>>>>>>>>>>>>>>>>>>>>>>>>>>>>>>>>>>>>>>   ",
"                                                                                                                                                ",
"                                                                                                                                                ",
"                                                                                                                                                "};
