/* XPM */
static char * we_wall_xpm[] = {
"93 93 6 1",
" 	c #994B4B",
".	c #613639",
"+	c #A76262",
"@	c #AC5C56",
"#	c #744141",
"$	c #B57A6F",
"                     ...+++++++++++++++++++++...                     ...+++++++++++++++++++++",
"                     ...+++++++++++++++++++++...                     ...+++++++++++++++++++++",
"                     ...+++++++++++++++++++++...                     ...+++++++++++++++++++++",
"                     ...+++++++++++++++++++++...                     ...+++++++++++++++++++++",
"                     ...+++++++++++++++++++++...                     ...+++++++++++++++++++++",
"                     ...+++++++++++++++++++++...                     ...+++++++++++++++++++++",
"                     ...+++++++++++++++++++++...                     ...+++++++++++++++++++++",
"                     ...+++++++++++++++++++++...                     ...+++++++++++++++++++++",
"                     ...+++++++++++++++++++++...                     ...+++++++++++++++++++++",
"                     ...+++++++++++++++++++++...                     ...+++++++++++++++++++++",
"                     ...+++++++++++++++++++++...                     ...+++++++++++++++++++++",
"                     ...+++++++++++++++++++++...                     ...+++++++++++++++++++++",
"                     ...+++++++++++++++++++++...                     ...+++++++++++++++++++++",
"                     ...+++++++++++++++++++++...                     ...+++++++++++++++++++++",
"                     ...+++++++++++++++++++++...                     ...+++++++++++++++++++++",
"                     ...+++++++++++++++++++++...                     ...+++++++++++++++++++++",
"                     ...+++++++++++++++++++++...                     ...+++++++++++++++++++++",
"                     ...+++++++++++++++++++++...                     ...+++++++++++++++++++++",
"                     ...........................                     ........................",
"                     ...........................                     ........................",
"                     ...........................                     ........................",
"                  @@@###@@@@@@@@@@@@@@@@@@@@@###@@@@@@@@@@@@@@@@@@@@@###@@@@@@@@@@@@@@@@@@@@@",
"                  @@@###@@@@@@@@@@@@@@@@@@@@@###@@@@@@@@@@@@@@@@@@@@@###@@@@@@@@@@@@@@@@@@@@@",
"                  @@@###@@@@@@@@@@@@@@@@@@@@@###@@@@@@@@@@@@@@@@@@@@@###@@@@@@@@@@@@@@@@@@@@@",
"..................######@@@@@@@@@@@@@@@@@@@@@###########################@@@@@@@@@@@@@@@@@@@@@",
"..................######@@@@@@@@@@@@@@@@@@@@@###########################@@@@@@@@@@@@@@@@@@@@@",
"..................######@@@@@@@@@@@@@@@@@@@@@###########################@@@@@@@@@@@@@@@@@@@@@",
"++++++++++++++++++$$$###@@@@@@@@@@@@@@@@@@@@@###$$$$$$$$$$$$$$$$$$$$$###@@@@@@@@@@@@@@@@@@@@@",
"++++++++++++++++++$$$###@@@@@@@@@@@@@@@@@@@@@###$$$$$$$$$$$$$$$$$$$$$###@@@@@@@@@@@@@@@@@@@@@",
"++++++++++++++++++$$$###@@@@@@@@@@@@@@@@@@@@@###$$$$$$$$$$$$$$$$$$$$$###@@@@@@@@@@@@@@@@@@@@@",
"++++++++++++++++++$$$###@@@@@@@@@@@@@@@@@@@@@###$$$$$$$$$$$$$$$$$$$$$###@@@@@@@@@@@@@@@@@@@@@",
"++++++++++++++++++$$$###@@@@@@@@@@@@@@@@@@@@@###$$$$$$$$$$$$$$$$$$$$$###@@@@@@@@@@@@@@@@@@@@@",
"++++++++++++++++++$$$###@@@@@@@@@@@@@@@@@@@@@###$$$$$$$$$$$$$$$$$$$$$###@@@@@@@@@@@@@@@@@@@@@",
"++++++++++++++++++$$$###@@@@@@@@@@@@@@@@@@@@@###$$$$$$$$$$$$$$$$$$$$$###@@@@@@@@@@@@@@@@@@@@@",
"++++++++++++++++++$$$###@@@@@@@@@@@@@@@@@@@@@###$$$$$$$$$$$$$$$$$$$$$###@@@@@@@@@@@@@@@@@@@@@",
"++++++++++++++++++$$$###@@@@@@@@@@@@@@@@@@@@@###$$$$$$$$$$$$$$$$$$$$$###@@@@@@@@@@@@@@@@@@@@@",
"++++++++++++++++++$$$###@@@@@@@@@@@@@@@@@@@@@###$$$$$$$$$$$$$$$$$$$$$###@@@@@@@@@@@@@@@@@@@@@",
"++++++++++++++++++$$$###@@@@@@@@@@@@@@@@@@@@@###$$$$$$$$$$$$$$$$$$$$$###@@@@@@@@@@@@@@@@@@@@@",
"++++++++++++++++++$$$###@@@@@@@@@@@@@@@@@@@@@###$$$$$$$$$$$$$$$$$$$$$###@@@@@@@@@@@@@@@@@@@@@",
"++++++++++++++++++$$$###@@@@@@@@@@@@@@@@@@@@@###$$$$$$$$$$$$$$$$$$$$$###@@@@@@@@@@@@@@@@@@@@@",
"++++++++++++++++++$$$###@@@@@@@@@@@@@@@@@@@@@###$$$$$$$$$$$$$$$$$$$$$###@@@@@@@@@@@@@@@@@@@@@",
"++++++++++++++++++$$$###@@@@@@@@@@@@@@@@@@@@@###$$$$$$$$$$$$$$$$$$$$$###@@@@@@@@@@@@@@@@@@@@@",
"++++++++++++++++++$$$###@@@@@@@@@@@@@@@@@@@@@###$$$$$$$$$$$$$$$$$$$$$###@@@@@@@@@@@@@@@@@@@@@",
"++++++++++++++++++$$$###@@@@@@@@@@@@@@@@@@@@@###$$$$$$$$$$$$$$$$$$$$$###@@@@@@@@@@@@@@@@@@@@@",
"++++++++++++++++++$$$###@@@@@@@@@@@@@@@@@@@@@###$$$$$$$$$$$$$$$$$$$$$###@@@@@@@@@@@@@@@@@@@@@",
"..................###########################################################################",
"..................###########################################################################",
"..................###########################################################################",
"                  @@@###$$$$$$$$$$$$$$$$$$$$$###@@@@@@@@@@@@@@@@@@@@@###$$$$$$$$$$$$$$$$$$$$$",
"                  @@@###$$$$$$$$$$$$$$$$$$$$$###@@@@@@@@@@@@@@@@@@@@@###$$$$$$$$$$$$$$$$$$$$$",
"                  @@@###$$$$$$$$$$$$$$$$$$$$$###@@@@@@@@@@@@@@@@@@@@@###$$$$$$$$$$$$$$$$$$$$$",
"                  @@@###$$$$$$$$$$$$$$$$$$$$$###@@@@@@@@@@@@@@@@@@@@@###$$$$$$$$$$$$$$$$$$$$$",
"                  @@@###$$$$$$$$$$$$$$$$$$$$$###@@@@@@@@@@@@@@@@@@@@@###$$$$$$$$$$$$$$$$$$$$$",
"                  @@@###$$$$$$$$$$$$$$$$$$$$$###@@@@@@@@@@@@@@@@@@@@@###$$$$$$$$$$$$$$$$$$$$$",
"                  @@@###$$$$$$$$$$$$$$$$$$$$$###@@@@@@@@@@@@@@@@@@@@@###$$$$$$$$$$$$$$$$$$$$$",
"                  @@@###$$$$$$$$$$$$$$$$$$$$$###@@@@@@@@@@@@@@@@@@@@@###$$$$$$$$$$$$$$$$$$$$$",
"                  @@@###$$$$$$$$$$$$$$$$$$$$$###@@@@@@@@@@@@@@@@@@@@@###$$$$$$$$$$$$$$$$$$$$$",
"                  @@@###$$$$$$$$$$$$$$$$$$$$$###@@@@@@@@@@@@@@@@@@@@@###$$$$$$$$$$$$$$$$$$$$$",
"                  @@@###$$$$$$$$$$$$$$$$$$$$$###@@@@@@@@@@@@@@@@@@@@@###$$$$$$$$$$$$$$$$$$$$$",
"                  @@@###$$$$$$$$$$$$$$$$$$$$$###@@@@@@@@@@@@@@@@@@@@@###$$$$$$$$$$$$$$$$$$$$$",
"                  @@@###$$$$$$$$$$$$$$$$$$$$$###@@@@@@@@@@@@@@@@@@@@@###$$$$$$$$$$$$$$$$$$$$$",
"                  @@@###$$$$$$$$$$$$$$$$$$$$$###@@@@@@@@@@@@@@@@@@@@@###$$$$$$$$$$$$$$$$$$$$$",
"                  @@@###$$$$$$$$$$$$$$$$$$$$$###@@@@@@@@@@@@@@@@@@@@@###$$$$$$$$$$$$$$$$$$$$$",
"                  @@@###$$$$$$$$$$$$$$$$$$$$$###@@@@@@@@@@@@@@@@@@@@@###$$$$$$$$$$$$$$$$$$$$$",
"                  @@@###$$$$$$$$$$$$$$$$$$$$$###@@@@@@@@@@@@@@@@@@@@@###$$$$$$$$$$$$$$$$$$$$$",
"                  @@@###$$$$$$$$$$$$$$$$$$$$$###@@@@@@@@@@@@@@@@@@@@@###$$$$$$$$$$$$$$$$$$$$$",
"                  @@@###########################@@@@@@@@@@@@@@@@@@@@@########################",
"                  @@@###########################@@@@@@@@@@@@@@@@@@@@@########################",
"                  @@@###########################@@@@@@@@@@@@@@@@@@@@@########################",
"                  @@@###@@@@@@@@@@@@@@@@@@@@@###@@@@@@@@@@@@@@@@@@@@@###@@@@@@@@@@@@@@@@@@@@@",
"                  @@@###@@@@@@@@@@@@@@@@@@@@@###@@@@@@@@@@@@@@@@@@@@@###@@@@@@@@@@@@@@@@@@@@@",
"                  @@@###@@@@@@@@@@@@@@@@@@@@@###@@@@@@@@@@@@@@@@@@@@@###@@@@@@@@@@@@@@@@@@@@@",
"..................######@@@@@@@@@@@@@@@@@@@@@###########################@@@@@@@@@@@@@@@@@@@@@",
"..................######@@@@@@@@@@@@@@@@@@@@@###########################@@@@@@@@@@@@@@@@@@@@@",
"..................######@@@@@@@@@@@@@@@@@@@@@###########################@@@@@@@@@@@@@@@@@@@@@",
"++++++++++++++++++$$$###@@@@@@@@@@@@@@@@@@@@@###$$$$$$$$$$$$$$$$$$$$$###@@@@@@@@@@@@@@@@@@@@@",
"++++++++++++++++++$$$###@@@@@@@@@@@@@@@@@@@@@###$$$$$$$$$$$$$$$$$$$$$###@@@@@@@@@@@@@@@@@@@@@",
"++++++++++++++++++$$$###@@@@@@@@@@@@@@@@@@@@@###$$$$$$$$$$$$$$$$$$$$$###@@@@@@@@@@@@@@@@@@@@@",
"++++++++++++++++++$$$###@@@@@@@@@@@@@@@@@@@@@###$$$$$$$$$$$$$$$$$$$$$###@@@@@@@@@@@@@@@@@@@@@",
"++++++++++++++++++$$$###@@@@@@@@@@@@@@@@@@@@@###$$$$$$$$$$$$$$$$$$$$$###@@@@@@@@@@@@@@@@@@@@@",
"++++++++++++++++++$$$###@@@@@@@@@@@@@@@@@@@@@###$$$$$$$$$$$$$$$$$$$$$###@@@@@@@@@@@@@@@@@@@@@",
"++++++++++++++++++$$$###@@@@@@@@@@@@@@@@@@@@@###$$$$$$$$$$$$$$$$$$$$$###@@@@@@@@@@@@@@@@@@@@@",
"++++++++++++++++++$$$###@@@@@@@@@@@@@@@@@@@@@###$$$$$$$$$$$$$$$$$$$$$###@@@@@@@@@@@@@@@@@@@@@",
"++++++++++++++++++$$$###@@@@@@@@@@@@@@@@@@@@@###$$$$$$$$$$$$$$$$$$$$$###@@@@@@@@@@@@@@@@@@@@@",
"++++++++++++++++++$$$###@@@@@@@@@@@@@@@@@@@@@###$$$$$$$$$$$$$$$$$$$$$###@@@@@@@@@@@@@@@@@@@@@",
"++++++++++++++++++$$$###@@@@@@@@@@@@@@@@@@@@@###$$$$$$$$$$$$$$$$$$$$$###@@@@@@@@@@@@@@@@@@@@@",
"++++++++++++++++++$$$###@@@@@@@@@@@@@@@@@@@@@###$$$$$$$$$$$$$$$$$$$$$###@@@@@@@@@@@@@@@@@@@@@",
"++++++++++++++++++$$$###@@@@@@@@@@@@@@@@@@@@@###$$$$$$$$$$$$$$$$$$$$$###@@@@@@@@@@@@@@@@@@@@@",
"++++++++++++++++++$$$###@@@@@@@@@@@@@@@@@@@@@###$$$$$$$$$$$$$$$$$$$$$###@@@@@@@@@@@@@@@@@@@@@",
"++++++++++++++++++$$$###@@@@@@@@@@@@@@@@@@@@@###$$$$$$$$$$$$$$$$$$$$$###@@@@@@@@@@@@@@@@@@@@@",
"++++++++++++++++++$$$###@@@@@@@@@@@@@@@@@@@@@###$$$$$$$$$$$$$$$$$$$$$###@@@@@@@@@@@@@@@@@@@@@",
"++++++++++++++++++$$$###@@@@@@@@@@@@@@@@@@@@@###$$$$$$$$$$$$$$$$$$$$$###@@@@@@@@@@@@@@@@@@@@@",
"++++++++++++++++++$$$###@@@@@@@@@@@@@@@@@@@@@###$$$$$$$$$$$$$$$$$$$$$###@@@@@@@@@@@@@@@@@@@@@"};
