/* XPM */
static char * bush_xpm[] = {
"64 64 268 2",
"  	c #07081C",
". 	c #06071B",
"+ 	c #08091D",
"@ 	c #0F1024",
"# 	c #0E0F23",
"$ 	c #0D0E22",
"% 	c #0A0B1F",
"& 	c #17182C",
"* 	c #090A1E",
"= 	c #131428",
"- 	c #101125",
"; 	c #0B0C20",
"> 	c #0D1023",
", 	c #0E1124",
"' 	c #0B0E21",
") 	c #090C1F",
"! 	c #0F1225",
"~ 	c #101326",
"{ 	c #05081B",
"] 	c #0C0F22",
"^ 	c #0A0D20",
"/ 	c #080B1E",
"( 	c #070A1D",
"_ 	c #0C0D1F",
": 	c #0B0C1E",
"< 	c #0E0F21",
"[ 	c #040519",
"} 	c #05061A",
"| 	c #0C0D21",
"1 	c #121528",
"2 	c #0D0E20",
"3 	c #0F1022",
"4 	c #1C1D31",
"5 	c #191A2E",
"6 	c #06091C",
"7 	c #101123",
"8 	c #111224",
"9 	c #111227",
"0 	c #08091E",
"a 	c #0F1025",
"b 	c #131429",
"c 	c #0E0F24",
"d 	c #0A0B20",
"e 	c #0B0C21",
"f 	c #0D0E23",
"g 	c #04071A",
"h 	c #111226",
"i 	c #101126",
"j 	c #090A1F",
"k 	c #121328",
"l 	c #111427",
"m 	c #131629",
"n 	c #16192C",
"o 	c #1A1D30",
"p 	c #15162B",
"q 	c #16172C",
"r 	c #0C0D22",
"s 	c #141529",
"t 	c #121327",
"u 	c #171A2D",
"v 	c #1D2033",
"w 	c #18192E",
"x 	c #1C1D32",
"y 	c #1A1B30",
"z 	c #15162A",
"A 	c #16172B",
"B 	c #17182D",
"C 	c #1A1B2F",
"D 	c #15182B",
"E 	c #06071C",
"F 	c #030619",
"G 	c #14152A",
"H 	c #1D1E33",
"I 	c #161C2E",
"J 	c #202136",
"K 	c #212237",
"L 	c #1B1C31",
"M 	c #222338",
"N 	c #2A485E",
"O 	c #27716F",
"P 	c #5AB659",
"Q 	c #191C2F",
"R 	c #1E2134",
"S 	c #191A2F",
"T 	c #2F966A",
"U 	c #15172E",
"V 	c #13152C",
"W 	c #101229",
"X 	c #14162D",
"Y 	c #11132A",
"Z 	c #0F1128",
"` 	c #0E1027",
" .	c #121325",
"..	c #090A1C",
"+.	c #0B0D24",
"@.	c #12142B",
"#.	c #0D0F26",
"$.	c #0C0E25",
"%.	c #0A0B1D",
"&.	c #0A0C23",
"*.	c #090B22",
"=.	c #070920",
"-.	c #13162B",
";.	c #14142C",
">.	c #16162E",
",.	c #15152D",
"'.	c #12122A",
").	c #16182F",
"!.	c #14162C",
"~.	c #13132B",
"{.	c #101328",
"].	c #101327",
"^.	c #101429",
"/.	c #111428",
"(.	c #111429",
"_.	c #121529",
":.	c #11152A",
"<.	c #13162A",
"[.	c #0F1327",
"}.	c #13172C",
"|.	c #14172D",
"1.	c #12162B",
"2.	c #121629",
"3.	c #15182D",
"4.	c #15182C",
"5.	c #14172B",
"6.	c #11162B",
"7.	c #0F142A",
"8.	c #0F1329",
"9.	c #10152B",
"0.	c #12172D",
"a.	c #13172D",
"b.	c #11152B",
"c.	c #101427",
"d.	c #1E1F34",
"e.	c #16192F",
"f.	c #10142B",
"g.	c #0B0F28",
"h.	c #0D112A",
"i.	c #13172E",
"j.	c #12162C",
"k.	c #171A31",
"l.	c #303347",
"m.	c #36384C",
"n.	c #202337",
"o.	c #0F1326",
"p.	c #24253A",
"q.	c #27283D",
"r.	c #171B30",
"s.	c #131730",
"t.	c #11152E",
"u.	c #14192F",
"v.	c #11142B",
"w.	c #14172E",
"x.	c #171930",
"y.	c #15192E",
"z.	c #26293D",
"A.	c #1A1D31",
"B.	c #16192D",
"C.	c #111529",
"D.	c #0E1225",
"E.	c #16182D",
"F.	c #181A31",
"G.	c #1A1C33",
"H.	c #1C1E37",
"I.	c #171B34",
"J.	c #151932",
"K.	c #141831",
"L.	c #101329",
"M.	c #15172F",
"N.	c #13162D",
"O.	c #13142B",
"P.	c #161930",
"Q.	c #10142A",
"R.	c #171B2F",
"S.	c #0D1124",
"T.	c #13172B",
"U.	c #1C1F33",
"V.	c #111328",
"W.	c #0C0E23",
"X.	c #121429",
"Y.	c #0F1126",
"Z.	c #080A1F",
"`.	c #0E1025",
" +	c #1A1C31",
".+	c #17172F",
"++	c #24243C",
"@+	c #303048",
"#+	c #111129",
"$+	c #101028",
"%+	c #1A1D33",
"&+	c #212239",
"*+	c #1D2036",
"=+	c #17192F",
"-+	c #181B32",
";+	c #15182F",
">+	c #13162F",
",+	c #12152D",
"'+	c #171932",
")+	c #11142C",
"!+	c #14172F",
"~+	c #1C1E33",
"{+	c #1A1A32",
"]+	c #1F1F37",
"^+	c #181830",
"/+	c #191C31",
"(+	c #131430",
"_+	c #10112D",
":+	c #161931",
"<+	c #151730",
"[+	c #171B31",
"}+	c #13152B",
"|+	c #14172A",
"1+	c #080A21",
"2+	c #0F0F27",
"3+	c #0E0E26",
"4+	c #191B32",
"5+	c #141531",
"6+	c #11122E",
"7+	c #0E0F2B",
"8+	c #0F102C",
"9+	c #161733",
"0+	c #171834",
"a+	c #1A1C35",
"b+	c #0D0F28",
"c+	c #191931",
"d+	c #0D0D25",
"e+	c #1B1D34",
"f+	c #2E3047",
"g+	c #32344B",
"h+	c #292B42",
"i+	c #12132F",
"j+	c #0A0B27",
"k+	c #0D0E2A",
"l+	c #151632",
"m+	c #161831",
"n+	c #13152E",
"o+	c #2C2E45",
"p+	c #2F3148",
"q+	c #23253C",
"r+	c #0B0C28",
"s+	c #10122B",
"t+	c #0C0E27",
"u+	c #1B1B33",
"v+	c #04061D",
"w+	c #1B1C38",
"x+	c #181935",
"y+	c #0F112A",
"z+	c #0A0C25",
"A+	c #1D1F36",
"B+	c #1C1E35",
"C+	c #191A36",
"D+	c #1F203C",
"E+	c #1D1E3A",
"F+	c #202239",
"G+	c #1C1C34",
"H+	c #1F2138",
"I+	c #21233A",
"J+	c #22233F",
"K+	c #20213D",
"L+	c #181B2E",
"M+	c #0E1029",
"N+	c #1A1B37",
"O+	c #12142D",
"P+	c #1D1D35",
"Q+	c #212139",
"R+	c #1C1D39",
"S+	c #14162F",
"  . + @ # $ $ $ $ # # @ # % @ & @ * = - # ; * * ; $ @ > , > ' ) ) ' > > > , ! ~ > ) { ] ' ' ^ ) / / ( ] ' ^ ) ) ^ ' ] _ : : _ < ",
"% + + $ $ $ $ $ $ $ $ [ $ ;   ; + } % ; ; % % % ; ; | ! ~ ! > ' ' > ! > , ~ 1 1 ! ^ { > > ] ' ^ ^ ) ) ^ ) / ( ( / ) ^ < 2 _ 2 3 ",
"= - - # # # # # # # @ * 4 5 * % @ # | * % | # # # | ; ^ ' ' ) ( / ^ ] , ] ' ' > ! , > ] ] ' ^ ^ ) / / / / 6 { { 6 / / 7 < 2 3 8 ",
"9 9 9 0 a b c d e f f ] , > ) ) > , ] ' ^ 6 g ( > ' 6 # % - h   + $ % * # - $ ; | | * ~ ! , ] ^ ) ( ( ( / ) / ( 6 ( ) * + + % | ",
"a i 9 j a k c d e f f ! l ~ ] ] ~ l ! g / ^ / ^ ~ m m - | - h + % - $ # - # * * $ # | ] ] ' ' ^ ^ ) ) ' ] ] ] > l n o $ | | $ @ ",
"f a i i p q 9 r r f r ! l ! ' ' ! l ! { ' , ) { / ] > @ * $ # . % h @ s t ; . * @ h # / / ) ) ^ ' ' ' ) ^ ^ ^ ' ~ u v * + + % | ",
"c c a w x y b c f r d ' > ' ( ( ' > ' ^ , ! ^ ( / ^ / h % $ # + $ z t A t ;   ; t t $ ( ( / ) ) ^ ^ ' / / / ( ( ) > l . } }   * ",
"9 a f p B q i r f c e ) ' ^ 6 6 ^ ' ) ] > > > l n n l z # @ h $ t C A = h $ ; @ s h % ^ ) ) ) ) / / / / ^ ] ] ^ ) ) ^ | ; ; | # ",
"k c r e f r j j c a c ' > ] / / ] > ' ! ! > ] l D 1 ' h * ; # % @ z - @ - @ # h = @ * ] ] ' ^ ) / ( ( { / ' > ' ^ ) ) @ # # @ h ",
"i f r j e j E 0 c i c > ! > ) ) > ! > , ~ ! ] ' ] ) F # . * | * $ h % | - h @ @ - # % > ] ] ' ^ ) ) / 6 / ^ ^ ) / / ) $ | | $ @ ",
"f r r i i f j j c a r ] , > ) ) > , ] { > l , ] > ! ! = ; # t @ t z $ | - h # | # # | ] ] ] ' ' ' ^ ^ ! ! , ] ) ) ^ ] # $ $ # - ",
"i a f b r r G H H B b ' ' ] > > > ] ' / ] , > ^ ) ] ~ h - @ # | ; * * z I I I I t - $ ^ ' ] ] ) / ^ , ] ( ( > ! ' ^ > h # @ = - ",
"r r e j f q J K w a r > > ] ] ] ] ] ] I I I I ] > ] ] - @ # I I I I % I I I I I I $ | ~ > ' ' ] ' ) ) ] / ) , ! ' ^ > - $ # - # ",
"r c a E c L M x a j d ! , > ] ' ' ] I I I I I I ! I I I ; I I I I I I I I N N I I $ $ l > ^ ^ > , ^ 6 ] ^ ' , ! ] ] , @ $ $ $ ; ",
"i b G r i p q i 0 j i , , , , , ] I I I O O I I I I I I I I P P P I I I N N N N I I h > , > ' ] , ] / ] ] , ! , ] ] , # # # $ ; ",
"i 9 9 i r e r e j e i ' > ~ l l , I I O O O O I I I I I I P P P P P I I N N N N I I I , n Q 1 ] ] > ] ' , ~ ! ] ] > > $ @ - # | ",
"r e d c j 0 f i c e e ) ] ! 1 1 ! I I O O O O I I P P I I P P P P P I I I N N I I I I I R I I I I > ] ) ! l , ^ ' ] ] ; - h @ $ ",
"r f c a r r i k a r r ' I I I ! I I I O O O O I P P P P I P P P P I I I I I P P P I I I I I I I I I ^ ( ! 1 > / ^ ' ^   # t @ $ ",
"9 p S q 9 a i a r c b I I I I I I I I I O O O T P P P P P P P P P I I I I P P P P P I I I I I I I I I I I 1 ] ( ) ' ^ [ | h @ $ ",
"U V W X V Y Z ` ` Z I I I N N I I I I I I I I T P P P P P P P T T I I P P P P P P P T I I T T T I I I I I I a a a a # $ 2 2 7  .",
"` Z W X V Y Z ` ` Z I I N N N N I I I P P I I T T P P P P T T T I I P P P P P P P P T I T T T T T I I N N I a f r e % * ...._ 7 ",
"+.` V @.W ` #.$.$.#.I I N N N N I I T P P P I I T T T T P P P P P P P P P P P P P T T I T T T T T I N N N N I I I I * | %.%.: 3 ",
"Z @.X ` #.+.&.*.&.I I I I N N N I T T P P P I I T T T T P P P P P P P P P T T T P T T T T T T T T I N N N N I I I I I s 8 3 < 3 ",
"X V @.Z ` $.+.&.I I I I I I I I I T T P P P I I I I I T T P P P P P P P T T T T T P P P T T T T I I N N N I I I I I I s  .3 3 7 ",
"V Y ` Y W Z ` ` I I I I O O O I I T T P P I I I P P I I T P P T T P P P T T T T T P P P T T T T I I I I I I I I I I I | : : < 7 ",
"` ` ` W Z ` I I I I I O O O O O I T T T T I I P P P P I T P T T T T P P P T T T P P P P I I I I I T T T I I I I I I f * % | @ t ",
"+.` Y #.$.I I I I I I O O O O O I O O I I I I P P P P T T T T T T T T T T T T T P P P I I I I I T T T T T I I I I I I $ # - = z ",
"` +.=.#.I I I I I I I I O O O O O O O I T T I I P P P T T T T T T T T T T T T T P P I I I I I I T T T T T I I I I I I I h t t h ",
"Z ` $.` I I N N I I I I I O O O O O I I T T I I I I T T T T T T T T T O O O T T T T I T T T I I T T O O T I I O O O I I I t - $ ",
"W W Y Y I N N N N I N N I N O O O O I I T T T T I I T T T T T T T T O O O O O T T T T T T T T I I O O O I I O O O O O I I i r d ",
"` Z Y U I N N N N N N N N N O O O O I I T T T T T I T O O T T T T T O O O O O T T O O O T T T I I O O O I I O O O O O I I c r e ",
"$.#.Z X I I N N N I N N N N O O O O I I I T T T T T O O O O T T T T O O O O O T O O O O O T T I O O O O O O O O O O I I I i i a ",
"$.#.` Y W I I I I I N N N N O O O O O I I O O O O O O O O O T T T O O O O O O O O O O O O T T I O O O O O O O O O I I I 9 G G k ",
"W Y Y Y Z ` I I I N N N O O O O O O O O O O O O O O O O O O T O O O O T T T O O O O O O T T T T O O O O O O I I I I I -.;.>.,.'.",
"U ).U V Y I I I N N N N O O O N N O O O T T T O O O O O O T T O O O T T T T O O O O O O O T T O O O O O O O O I I I I I !.;.~.'.",
"` Z Z +.{.I I I N N N N O O N N N N O O T T T O O O O O T T T T O O T T T O O O O O O O O O O O O N N O O O O I N N I I I ].f c ",
"Z Z Z #.^.I I I I N N N N O N N N N O O O T T O O O O O O T T T O O O O O O O O O O O O O O O O N N N N O O I N N N N I I /.l c ",
"W Z ` (.(.(.I I I I I N N N N N N O O O O O O O O O O O O O T T O O O O O O O O O N N N O O O O N N N N N N N N N N N I I _._.a ",
"Y Z ` ^.(.:.:.I I N N N N N N N N O O N N N N N O O O O O O O O O O N N N O O O N N N N N O O O N N N N N N N N N N N I I <.9 9 ",
"@.W Z [.(.-.I I N N N N N N N N N O N N N N N N N O O O O O O O N N N N N N O O N N N N N O O O O N N N N N N N N N I I <.<.k 9 ",
"@.@.Y {.:.}.I N N N N N I N N N N N N N N N N N N O N N O O O O O N N N N N N N N N N N N O O O O N N N I I I I I I I _.m m <.9 ",
"@.V |.1.-.-.I N N N N I I N N N N N N N N N N N O O N N N O O O O N N O O O N N N N N N O O O O O N N N N I I I I I 2.l l _.m 9 ",
"@.X 3.3.|.1.I I N N I I I N N N N N N I N N N O O O O N N O O O N N O O O O N N N N N N O O O O N N N N N N N N I I I ~ ]./._.9 ",
"U U X [.1.:.I I I I I I I N N N N N N I N N N O O O O N N N O O N N O O O O N N N N N N N O O N N N N N N N N N N I I I _.4.5.f ",
"X U U (.}.-.^.I I I I I I I N N N N I I N N N N O O N N N N N N N N O O O O I N N N N N N N N N N N I N N N N N N I I I 4.4.b a ",
"V X X Z }.-.:.:.}.|.}.I I I I I I I I I I N N N N N N N N N N N N N N O O N I N N N N N N N N N I I I I N N N N I I I I /.l f d ",
"X V @.Z :.:.(.(.1.-.-.6.I I I I I I I I I I I I N N N N N N I N N N N N I I I N N N N I N N N N N I I I I I I I I I I ].! /.9 d ",
"U @.Z Y Z :.1.1.1.-.|.7.8.9.0.a.b.I I I I I I N N N N N N N I I N N I I I I I I N N N I I N N N N I I I I I I I I I c./.<.d.K b ",
").V W X Y Y X X }.|.e.f.g.h.i.a.j.a.k.).I I I N N N N N N I I I I I I I I I I I I I I I I I I I l.m.n.4.c.I I I ].o.2.p B p.q.p ",
").).U ).Y Y U U @.|.r.s.t.t.u.a.v.b.w.U x.I I I N N N N I I I I I I I |.}.-.|.y.I I I I I 2.5.5.n.z.A.B.C.c.<.C.D.].E.S k w x 9 ",
"U F.G.X Z Z V X W Y ).H.I.J.K.a.L.8.b.X M.M.N.O.@.O.v.P.3.j.(.Q.:.N.|.Q.^.v.}.P.e.w.:.R.S.T.U.V.W.5./.R.2.C.X.Y.Z.`. +L f r 9 i ",
".+++@+.+#+$+,.,.'.;.F.&.W U U W $.+.$.@.` 1.%+&+*+=+j.-+;+>+w.>+j.,+;+'+P.>+v.)+a.!+a.{.l _.m k b b 5.b G G p p p G G g ~+Z.Y W ",
">.{+]+^+;.'.,.,.'.;.^+Z X F.).Y $.$.#.X X X x./+r.}.[.'+!+>+!+(+_+_+(+:+<+>+>+<+<+:+[+}+9 k k k 9 i a G G p p G b k 9 ] |+1+).<+",
".+~.2+'.2+3+$+$+3+2+'.U x.4+x.@.` ` W ` @.Y $.Z ).).Z 5+6+6+(+(+_+_+(+(+7+8+9+0+(+5+a+#+9 k k k 9 i a G G G G k 9 a c D , #.G.b+",
"c+;.2+d+d+d+3+3+3+2+$+U x.x.U Y W Y V V F.).Y e+f+g+h+i+8+_+(+5+6+6+5+8+j+k+l+l+k+7+m+d+c i 9 k b b b k k k k k 9 a a ~ { Z F.n+",
"^+c+^+2+$+'.'.;.>..+>.@.V V @.Y @.X U W @.#.*.x.o+p+q+6+7+8+(+5+i+(+0+_+k+_+l+(+r+j+s+d+c i 9 k b b b c a i 9 k k k 9 |+) ` *.t+",
">.c+u+3+'.;.~.,.^+^+>.W W W Y @.V U U Z #.=.v+$.x.U +.i+8+7+i+5+(+9+w+(+9+x+0+i+7+7+y+#+9 k k k 9 i a f c i 9 k b b b 1 ~ U #.z+",
"^+.+.+2+;.,.'.~.>.,.#+Y W Y @.V X X V A+A+B+e+4+).V W 5+_+7+6+(+l+C+D+(+E+D+9+_+(+5+s+#+9 k k k 9 i a a i 9 k b b b k ) ] U F+H.",
"G+>.#+,.{+u+>.,.^+>.$+V @.@.V X X V Y U 4+H+I+F.` #.V l+_+7+_+(+l+w+J+6+K+J+(+7+9+x+s+d+c i 9 k b b b k k b b b k 9 9 L+, 1+).y+",
"u+^+~.{+;.$+$+'.;.,..+V U x.).X V V V ` Y X @.Z ` Y X k+_+l+C+C+0+(+6+i+i+_+7+_+(+_+z+#+9 9 G q q G k G p p b i a k q |+n x.X M+",
"c+.+,.>.~.#+'.~.~.~.~.Y Y W W W W Z Z Z ` Z W @.V X X l+0+C+N+C+l+6+8+6+(+6+7+_+l+l+O+~.b b p B B G k b p p G 9 i k G , ! W W M+",
"c+^+.+>.;.~.;.>..+,.#+x.X Y Y X U V Y V Z $.` V ).X Y 9+0+x+x+9+5+i+_+8+(+i+7+k+_+(+O+,.p p q w B G k k G p p b 9 k k , > #.` s+",
",.,.,.{+.+~.;.{+]+{+~.B+x.V V x.G.x.V U @.Z Z @.V V Y 8+_+6+i+(+5+l+l+6+9+x+i+7+7+8+M+>.p p q B q b i k b p p G b 9 9 |+l Z W n+",
"~.;.>.P+u+>.;.u+Q+P+;.x.@.` Z V U @.` Y @.V Y Z W X F.k+7+8+6+5+9+x+C+6+x+R+x+5+(+i+y+;.G G G p G k a b b G p p G k i m l Z Y S+"};
