/* XPM */
static char * we_wall_xpm[] = {
"64 64 14 1",
" 	c #3A3A50",
".	c #BBA085",
"+	c #966856",
"@	c #915E50",
"#	c #3F3F4B",
"$	c #504542",
"%	c #996D59",
"&	c #7E6052",
"*	c #66544F",
"=	c #8C6756",
"-	c #6D584F",
";	c #735B50",
">	c #B99E86",
",	c #9C786B",
"                                                                ",
"                                                                ",
" .............................................................. ",
" .............................................................. ",
" .............................................................. ",
" .............................................................. ",
" .............................................................. ",
" .............................................................. ",
" .............................................................. ",
" .............................................................. ",
" .............................................................. ",
" .............................................................. ",
"                                                                ",
"                                                                ",
" ++++@@++++#++++@++++##++++@++++#++++@@++++#++++@++++##++++@+++ ",
" ++++@@++++#++++@++++##++++@++++#++++@@++++#++++@++++##++++@+++ ",
" ++++@@++++$++++@++++$$++++@++++$++++@@++++$++++@++++$$++++@+++ ",
" %%%%&&%%%%*%%%%&%%%%**%%%%&%%%%*%%%%&&%%%%*%%%%&%%%%**%%%%&%%% ",
" %%%%&&%%%%*%%%%&%%%%**%%%%&%%%%*%%%%&&%%%%*%%%%&%%%%**%%%%&%%% ",
" %%%%&&%%%%*%%%%&%%%%**%%%%&%%%%*%%%%&&%%%%*%%%%&%%%%**%%%%&%%% ",
" %%%%==%%%%-%%%%&%%%%--%%%%=%%%%-%%%%&&%%%%-%%%%=%%%%--%%%%&%%% ",
" %%%%%%%%%%;%%%%&%%%%;;%%%%%%%%%;%%%%&&%%%%;%%%%%%%%%;;%%%%&%%% ",
" %%%%%%%%%%;%%%%&%%%%;;%%%%%%%%%;%%%%&&%%%%;%%%%%%%%%;;%%%%&%%% ",
" %%%%==%%%%;%%%%&%%%%;;%%%%=%%%%;%%%%&&%%%%;%%%%=%%%%;;%%%%&%%% ",
" %%%%==%%%%;%%%%&%%%%;;%%%%=%%%%;%%%%&&%%%%;%%%%=%%%%;;%%%%&%%% ",
" %%%%&&%%%%;%%%%=%%%%**%%%%&%%%%;%%%%==%%%%*%%%%&%%%%;;%%%%=%%% ",
" %%%%&&%%%%;%%%%=%%%%**%%%%&%%%%;%%%%==%%%%*%%%%&%%%%;;%%%%=%%% ",
" %%%%&&%%%%;%%%%=%%%%$$%%%%&%%%%;%%%%==%%%%$%%%%&%%%%;;%%%%=%%% ",
" %%%%&&%%%%;%%%%=%%%%$$%%%%&%%%%;%%%%==%%%%$%%%%&%%%%;;%%%%=%%% ",
" %%%%&&%%%%&%%%%=%%%%$$%%%%&%%%%&%%%%==%%%%$%%%%&%%%%&&%%%%=%%% ",
" %%%%&&%%%%&%%%%=%%%%$$%%%%&%%%%&%%%%==%%%%$%%%%&%%%%&&%%%%=%%% ",
" %%%%&&%%%%=%%%%=%%%%$$%%%%&%%%%=%%%%==%%%%$%%%%&%%%%==%%%%=%%% ",
" %%%%&&%%%%=%%%%=%%%%$$%%%%&%%%%=%%%%==%%%%$%%%%&%%%%==%%%%=%%% ",
" %%%%&&%%%%=%%%%=%%%%;;%%%%&%%%%=%%%%==%%%%;%%%%&%%%%==%%%%=%%% ",
" %%%%&&%%%%=%%%%=%%%%;;%%%%&%%%%=%%%%==%%%%;%%%%&%%%%==%%%%=%%% ",
" %%%%&&%%%%;%%%%&%%%%;;%%%%&%%%%;%%%%&&%%%%;%%%%&%%%%;;%%%%&%%% ",
" %%%%&&%%%%;%%%%&%%%%;;%%%%&%%%%;%%%%&&%%%%;%%%%&%%%%;;%%%%&%%% ",
" %%%%&&%%%%*%%%%&%%%%;;%%%%&%%%%*%%%%&&%%%%;%%%%&%%%%**%%%%&%%% ",
" %%%%&&%%%%*%%%%&%%%%;;%%%%&%%%%*%%%%&&%%%%;%%%%&%%%%**%%%%&%%% ",
" %%%%&&%%%%$%%%%&%%%%&&%%%%&%%%%$%%%%&&%%%%&%%%%&%%%%$$%%%%&%%% ",
" %%%%&&%%%%$%%%%&%%%%&&%%%%&%%%%$%%%%&&%%%%&%%%%&%%%%$$%%%%&%%% ",
" %%%%&&%%%%$%%%%&%%%%==%%%%&%%%%$%%%%&&%%%%=%%%%&%%%%$$%%%%&%%% ",
" %%%%&&%%%%$%%%%&%%%%==%%%%&%%%%$%%%%&&%%%%=%%%%&%%%%$$%%%%&%%% ",
" %%%%&&%%%%$%%%%=%%%%&&%%%%&%%%%$%%%%==%%%%&%%%%&%%%%$$%%%%=%%% ",
" %%%%==%%%%$%%%%%%%%%;;%%%%=%%%%$%%%%%%%%%%;%%%%=%%%%$$%%%%%%%% ",
" %%%%==%%%%$%%%%%%%%%;;%%%%=%%%%$%%%%%%%%%%;%%%%=%%%%$$%%%%%%%% ",
" %%%%==%%%%$%%%%%%%%%;;%%%%=%%%%$%%%%%%%%%%;%%%%=%%%%$$%%%%%%%% ",
" %%%%==%%%%*%%%%=%%%%;;%%%%=%%%%*%%%%==%%%%;%%%%=%%%%**%%%%=%%% ",
" %%%%==%%%%;%%%%&%%%%;;%%%%=%%%%;%%%%&&%%%%;%%%%=%%%%;;%%%%&%%% ",
" %%%%==%%%%;%%%%&%%%%;;%%%%=%%%%;%%%%&&%%%%;%%%%=%%%%;;%%%%&%%% ",
" %%%%&&%%%%-%%%%&%%%%--%%%%&%%%%-%%%%&&%%%%-%%%%&%%%%--%%%%&%%% ",
" %%%%&&%%%%-%%%%&%%%%--%%%%&%%%%-%%%%&&%%%%-%%%%&%%%%--%%%%&%%% ",
" %%%%&&%%%%*%%%%&%%%%**%%%%&%%%%*%%%%&&%%%%*%%%%&%%%%**%%%%&%%% ",
" %%%%&&%%%%*%%%%&%%%%**%%%%&%%%%*%%%%&&%%%%*%%%%&%%%%**%%%%&%%% ",
" ++++@@++++$++++@++++$$++++@++++$++++@@++++$++++@++++$$++++@+++ ",
" ++++@@++++$++++@++++$$++++@++++$++++@@++++$++++@++++$$++++@+++ ",
" @@@@@@@@@@#@@@@@@@@@##@@@@@@@@@#@@@@@@@@@@#@@@@@@@@@##@@@@@@@@ ",
" @@@@@@@@@@#@@@@@@@@@##@@@@@@@@@#@@@@@@@@@@#@@@@@@@@@##@@@@@@@@ ",
" >>>>>>>>>>>>>>>>>>>>>>>>>>>>>>>>>>>>>>>>>>>>>>>>>>>>>>>>>>>>>> ",
" >>>>>>>>>>>>>>>>>>>>>>>>>>>>>>>>>>>>>>>>>>>>>>>>>>>>>>>>>>>>>> ",
" ,,,,,,,,,,,,,,,,,,,,,,,,,,,,,,,,,,,,,,,,,,,,,,,,,,,,,,,,,,,,,, ",
" ,,,,,,,,,,,,,,,,,,,,,,,,,,,,,,,,,,,,,,,,,,,,,,,,,,,,,,,,,,,,,, ",
"                                                                ",
"                                                                "};
