/* XPM */
static char * we_wall2_xpm[] = {
"64 64 245 2",
"  	c #805C3A",
". 	c #C39162",
"+ 	c #C69A6B",
"@ 	c #A1744A",
"# 	c #A9774B",
"$ 	c #493724",
"% 	c #735336",
"& 	c #825E3C",
"* 	c #89623E",
"= 	c #8B6540",
"- 	c #916841",
"; 	c #966B42",
"> 	c #8D653E",
", 	c #7E5A3A",
"' 	c #7C5938",
") 	c #8C623E",
"! 	c #976840",
"~ 	c #90663F",
"{ 	c #86613D",
"] 	c #B58558",
"^ 	c #B98B5D",
"/ 	c #BF9263",
"( 	c #C89D6D",
"_ 	c #CB9E6E",
": 	c #C29566",
"< 	c #B8895B",
"[ 	c #AA7C4F",
"} 	c #946B46",
"| 	c #855E3B",
"1 	c #705032",
"2 	c #664A30",
"3 	c #997048",
"4 	c #795737",
"5 	c #6B4E33",
"6 	c #533D29",
"7 	c #BB8857",
"8 	c #A7794D",
"9 	c #A77448",
"0 	c #453524",
"a 	c #9A6D43",
"b 	c #A5774B",
"c 	c #B18154",
"d 	c #B28355",
"e 	c #B38050",
"f 	c #AF7F52",
"g 	c #AE7D4F",
"h 	c #BC8C5D",
"i 	c #B78759",
"j 	c #BF8F5F",
"k 	c #55402B",
"l 	c #C79767",
"m 	c #3F3021",
"n 	c #A57549",
"o 	c #B68353",
"p 	c #BC8E60",
"q 	c #AA7A4C",
"r 	c #60462E",
"s 	c #AD7A4C",
"t 	c #996B42",
"u 	c #44311F",
"v 	c #9E7146",
"w 	c #775435",
"x 	c #3A2B1C",
"y 	c #A16F44",
"z 	c #A27447",
"A 	c #513B26",
"B 	c #6B4B2F",
"C 	c #745031",
"D 	c #795332",
"E 	c #7F5936",
"F 	c #7C5634",
"G 	c #815A37",
"H 	c #9C6F44",
"I 	c #A27147",
"J 	c #875F3A",
"K 	c #835D39",
"L 	c #93663F",
"M 	c #493320",
"N 	c #4D3927",
"O 	c #4F3722",
"P 	c #66462C",
"Q 	c #5B422B",
"R 	c #583E28",
"S 	c #5F432A",
"T 	c #402C1C",
"U 	c #8C623B",
"V 	c #8F643D",
"W 	c #89613B",
"X 	c #372719",
"Y 	c #946A41",
"Z 	c #946840",
"` 	c #9C6B42",
" .	c #92633C",
"..	c #865C38",
"+.	c #8B5E39",
"@.	c #99603D",
"#.	c #995B38",
"$.	c #945936",
"%.	c #875332",
"&.	c #8C5736",
"*.	c #8C5433",
"=.	c #9C5C39",
"-.	c #8F5433",
";.	c #825032",
">.	c #A3613B",
",.	c #A56842",
"'.	c #AB6C43",
").	c #975634",
"!.	c #975736",
"~.	c #9C5735",
"{.	c #9F5D36",
"].	c #A9613B",
"^.	c #A96038",
"/.	c #B2653B",
"(.	c #AE673F",
"_.	c #A9633D",
":.	c #AC663D",
"<.	c #A05B38",
"[.	c #9E5935",
"}.	c #965632",
"|.	c #975936",
"1.	c #9C5936",
"2.	c #9F5E39",
"3.	c #7E462B",
"4.	c #633923",
"5.	c #955635",
"6.	c #8C5132",
"7.	c #955432",
"8.	c #9E5B37",
"9.	c #A15C38",
"0.	c #A35D37",
"a.	c #A15A35",
"b.	c #995834",
"c.	c #9C5B35",
"d.	c #AA6339",
"e.	c #AC643C",
"f.	c #B1673F",
"g.	c #A55F3A",
"h.	c #A25F38",
"i.	c #A6623C",
"j.	c #985432",
"k.	c #985833",
"l.	c #8A5031",
"m.	c #884B2B",
"n.	c #8D4F31",
"o.	c #915132",
"p.	c #A45F38",
"q.	c #AC623A",
"r.	c #A76139",
"s.	c #9A5632",
"t.	c #9A5736",
"u.	c #9A5936",
"v.	c #9C5934",
"w.	c #935334",
"x.	c #A65E37",
"y.	c #AF663A",
"z.	c #B1673C",
"A.	c #B4673E",
"B.	c #BD6D41",
"C.	c #BD7143",
"D.	c #B26B40",
"E.	c #915331",
"F.	c #945633",
"G.	c #8F5130",
"H.	c #925531",
"I.	c #7E4A2E",
"J.	c #844D2F",
"K.	c #884E30",
"L.	c #8B502E",
"M.	c #81492D",
"N.	c #79462A",
"O.	c #884D2C",
"P.	c #81472A",
"Q.	c #7A4329",
"R.	c #8B4D2F",
"S.	c #884C2F",
"T.	c #8D5130",
"U.	c #884F2E",
"V.	c #824C2C",
"W.	c #BA6D41",
"X.	c #5F3924",
"Y.	c #673A24",
"Z.	c #5D3722",
"`.	c #6D3D26",
" +	c #804B2C",
".+	c #814B2F",
"++	c #864F30",
"@+	c #7B462A",
"#+	c #75442A",
"$+	c #704129",
"%+	c #714229",
"&+	c #6D4128",
"*+	c #79482D",
"=+	c #774529",
"-+	c #76462B",
";+	c #7C492C",
">+	c #935535",
",+	c #744228",
"'+	c #895031",
")+	c #8A5131",
"!+	c #915634",
"~+	c #915434",
"{+	c #844B2E",
"]+	c #945131",
"^+	c #AF643B",
"/+	c #B5693E",
"(+	c #B66C41",
"_+	c #7E482B",
":+	c #8D4E2D",
"<+	c #4A2D1C",
"[+	c #864D2E",
"}+	c #8E5233",
"|+	c #643C25",
"1+	c #593622",
"2+	c #543421",
"3+	c #583320",
"4+	c #53311F",
"5+	c #50301F",
"6+	c #694028",
"7+	c #673D25",
"8+	c #6A3D25",
"9+	c #713F25",
"0+	c #4D2E1D",
"a+	c #704D2F",
"b+	c #84492C",
"c+	c #854B2C",
"d+	c #91502F",
"e+	c #6A482C",
"f+	c #C17346",
"g+	c #C67647",
"h+	c #774227",
"i+	c #6C3F27",
"j+	c #72442A",
"k+	c #C17142",
"l+	c #C97B4B",
"m+	c #8F5331",
"n+	c #43291A",
"o+	c #3F2819",
"p+	c #452C1C",
"q+	c #4D301F",
"r+	c #492E1F",
"s+	c #482B1C",
"t+	c #3B2519",
"u+	c #B96A3F",
"v+	c #312316",
"  . + @ # $ %   & * = - ; > & , % % , ' ' ' ' ) ! ~ { - ] ^ / ( _ _ _ ( : : + : < [ } { | 1 1 2 % ~ { @ - 3 * , 4 5 6 7 : 8 # ' ",
"} + _ [ 9 0 4 ~ a @ b @ @ b [ c d c e f d d g [ c d [ 8 b [ d ] < / : ^ ^ < ^ h ^ h ] d d i h ^ < h j < < ] d 8 3 * k . l ] ! 1 ",
"} l ( c ! m 4 - 3 @ [ 8 n 8 8 b b n 8 [ f d o d ] ] i i ] h i i p < h p h ^ ^ p p ^ < c ] c c c c f [ [ q @ @ @ ; , k ( : d # 5 ",
"r s @ , t u } [ i ^ ^ ^ ] < p < c < ^ / p j j j . p ^ . + ( + ( ( ( _ ( l e s p + + + : / p h i c ] d f f [ v ; ~ w x y ] = z r ",
"5 b n ' ! A B C D w 4 C 5 1 , a ) E D C E F G ~ H I I z s < h ] f d [ @ 3 ; I n ! ! # g b I q # H J K J 9 9 ! L 8 g x 9 # ; H 2 ",
"w I f   > M N $ O r 1 B P 5 5 5 % 4 % 5 r Q R k R Q S k Q 6 R A N A R R R 6 6 k A Q k N $ N N $ A O N M M M O R Q O T 9 n } ; 2 ",
"k y z , U M = K , , 4 w E E * H ; a V | { | J * & W   * ; | ) * , K 4 , | , G % % % 4 , ,   K G > { K | { - v n z ; X t z ~ ! 2 ",
"k n g   E x - { K | w K = { | K   & * * Y - ~ Y v v ; Z ; ; v n [ o g [ # # c c 8 H Y > W W   4 { * > > ~ = F C E W x y g = > S ",
"k @ f & F X * | Y ; ~ | ' C 4 ,   | = W ~ ~ , ) K ) a ` ` a H y g o 7 < i # I a v Y > ~ V ) E { * - ; v n q o [ [ [ x g v a > k ",
"N # I G F x 1 ' , K B - w   F K Z ~ a } = ~ ) { | J L J U U V V E ' G F C C E ~ @ z v Z * | F J  .a n b t n n > ....m e H v ~ Q ",
"6 I n { D x +. .@.@.@.@.@.+.#.$.%.%.&.*.=.@. .-.;.+.;.+. .&.%.&.;.;.%.&.&.+. .&.&. .>.,.'.'.,.,.&.&.&.;.;.;.;.%.&.$.x y v a J 6 ",
"N @ d * D x ).!.~.{.].^./.(._.:.<.<.[.}.!.|.1.2.3.4.5.6.7.=.8.9.9.0.a.a.b.c.0.d.e.f.:.e.g.h.h.8.8.a.<.b.a.a.).7.7.7.x v q 3 ) Q ",
"u @ / = E T g.g.0.>.i.i.g.].>.].i.2.8.9.).j.8.<.k.).6.l.m.n.7.o.o.8.1.!.1.0.h.p.g.<.{.p.p.g.^.d.q.q._._.i.8.8.h.9.<.x H ] 3 t 2 ",
"m a ] K J u 8.8.[.^.r.r.~.s.c.).8.h.i.r.i.:.].e.].>.g.>.8.t.u.8.[.{.a.v.w.1.2.>.x._.].q.y.r.z.A.B.B.C.D.D.(.>.u.h.r.m Z # U Y Q ",
"$ ~ H {  .O E.j.1.g.F.G.H.H.H.I.J.K.*.c.c.}.b.L.F.p.(.o.J.M.N.o.^.g._.{.O.P.Q.R.h.:.e.S.R.L.T.T.U.O.V.R.9.D.f.W.B.C.m U L ~ I R ",
"0 ~ ; {  .T X.4.Y.Z.`. +I..+++J.S.3.@+#+$+%+%+$+&+*+M.=+-+%+%+;+K..+*+#+=+#+#+I.>+$.$.++I.;+;+;+;+;+.+@+,+;+V.++-.N.x +.c * v P ",
"N 9 [ * ..A 2.0.:.>.>.<.<.w.w.K.'+'+)+!+!.~+{+J.'+l.S.H.).5.o.]+F.F.r.^+(.(.f.D./+e.(.f.(+W.D.].i.:._.>.<.8.w.K..+_+x ) i - ; Q ",
"k y < * K u 5.5.!.!.}.<.<.8.=.t.t.}.|.u.u.u.b.T.:+R.;.++L.P.++V..+ +{+{+{+{+I..+V.J.{+3.K.U.'+K.'+'+'+'+>+!+!.5.-.2.x Y / Y J r ",
"6 v [   ' <+u.=.#.!.~+5.o.H.}.l.~+'+F.E.K.[+++~+H.k.1.#.c.(.{.<.c.}.}+-.}+6.'+++J.J..+-+,+3._+M.J. +;+M.[+>+>+-.~+|.x @ g * | C ",
"k a z C w P |+X.1+2+3+4.4+5+Z.X.%+6+$+7+6+|+6+6+,+|+2+4+4+6+&+8+&+Y.6+8+4.Z.X.X.Z.2+3+3+2+3+1+1+Z.X.Y.4.X.9+1+4+0+4+x 8 8 w , W ",
"r ; ; % w a+b.c.]+}+R.b+;+;+@+n.m.H.J.c+&+{+}.h.=.d+M.@+;+;+1+&+*+$+P.b+m.O.]+}.}.-.]+]+]+{+-+I.J.J.J.++*.6.-.-.!+H.x H a % a+F ",
"N a > 4 * e+t.).<.<.5.~+!+$.t.~+}+t.t.<.<.<.u.v.8.F.{.r.f.f+8+f+W.f+g+g+B.A.d.r.r.0.}.}.8.|.).~.b.k.>+++I.Q.h+h+Q.=+m H -   w e+",
"r Y | E t B 6.>+!+>+$.!+w.}+5.F.!.u.>+}+S.S.J.{+{+ +J.c+V.>+'.`.)+L.o.}+6.6.}.k.*.L.R.M.O.b+c+m.}+6.-.}+H.6.}+6.T.}.m ; K   G C ",
"k * w E o B u.u.b.k.5.).}+T.l.K.S.-.)+U.l.K.K.K.N.%+#+*+J.@+S.$+++'+[+'+[+_+*+I.'+~+!+-.6.M._+K.G.}+o.6.m.O.J.K.[+}+x > ' K L { ",
"N H ,   7 S i+&+%+8+X.X.6+|+$+&+-+7+X.1+2+1+3+|+4.Z.Z.Z.Z.3+3+4+3+Z.|+4.4.-+i+6+%+&+*+-+-+j+&+%+-+j+-+%+2+<+Z.6+|+i+m a     g U ",
"$ H w E 7 w ,+-+#+N.N.N.*+*+.+;+&+8+&+&+6+7+&+=+$+8+&+;+#+4.4.4.4.4.4.8+6+&+=+*+*+%+=+3.$+$+j+&+c+U.k.7.;.=+*+@+-+%+m v | E q > ",
"m [ | E 7 E _+3.3.3.{+'+)+)+-.*.&.$.&.'+++'+;+-+;+#+&+&+N.,+j+j+%+%+%+j+$+i+$+i+i+i+6+|+4.|+7+&+6+7+Y.8+8+i+&+9+i+&+m [ Z E 9 z ",
"0 q = & j D I. +I.J.J.6.'+6.++@+$+$+6+$+$+-+.+I. +V.*+j+`.$+$+j+9+@+;+N.j+8+7+`.i+%+@+%+%+%+N.#+ +N. +S.U.V.V.@+9+9+m z v & a y ",
"0 z ~ K g r |.6.8.c.2.h.t.{.$.!.7.5.>+_.:.y.f.W.D.C.f+C.=.}+u.>.].e.h.9.8.c.c.F.c._.:.W.C.A.h._.i.r.:.f.q.0.=.c.~+E.0 v Z K Z - ",
"A H K K y S i+i+$+%+$+X.4.|+,+-+I.#+#+J.%+j+{+J.N.N.;+N.i+6+6+|+6+|+-+;.I.N.$+&+ +=+h+++l.++++ +I.i+=+N.$+8+8+&+I.-+M v L J ` E ",
"O ` Y G Z O k+l+f+g+f+g+k+W.W.z.w.u.8.c.H.a.h.0.0.9.K.M.L.*.7.G.G.n.5.P.l.=.8.b.k.c.(+:.h.}.!.8.G.T.M.n.@+}+b.c.g.9.M H v K L   ",
"O U J 4 n O F.5.>+>+w.-.u.2.0.d.D./+{.~.!.>+6.3.c+5.c.c.}+}+{+'+-.k.5.).k.p.=.u.{.5.-.S.M.M.>+|.t.<.u.|.t.1.!+c.!+>+u ` W J v % ",
"$ , > { W M _.{.u.|.}.}.}.k.u.>.{.h.1.c.>+t.c.$.5.-.l.l.[+[+I.J.K.J.l.6.E.K.)+l.K.O.~+5.}+l.6.~+w.~+~+-.w.6.~+T.m+~+m E a > - ' ",
"N J ! & +.M {.{.[.s.a.{.{.h.(+^+r.c.b.S.i+#+++-.>+t.>+>+}+-.~+#.t.d.i.5.-.T.L.5.'+%+N. +;+;+I.N.@+.+l.;+[+++G.5.5.F.m K ! } U = ",
"m > a ' G M 2+u n+o+p+M M <+p+p+u T p+T o+p+p+p+p+q+<+p+r+M M r+0+s+5+r+T p+T T s+p+x t+o+o+n+T r+p+p+p+s+n+T p+n+p+x ~ a   J } ",
"m ~ # E +.u ^+k.6.;+R.5.t.}.b.6.).n.o.n.6.l.n.5.u.|.=.<.2.h.<.h.h.^.x.^.^.>+_+c+[+m+s.[.9.{.x.G.E.5.t.8.|.5.n.o.E.~+x ! a E U = ",
"m L g E s M d.<.h.{.9.g.9.>+G.k.t.>.9.x.1.G.5.|.1.5.9.8.^.^.(.(.p.r.=.~+!.l.U. +{.c.S.-.0.:.(.r.d.8.2.!.k.q.].9.<.{+x ` I +.9 } ",
"M ~ v 4 ) r+;+l.}+K._+=+j+N.@+l. +[+ +J.M.*+j+*+$+#+N.;+#+.+)+6.-.~+'+-.6.'+8.8.h.h.|.H.T.u.x.c.}.}+l.K.;.$.$.K.@+%+T ` v { ) = ",
"6 v # ' t O V.T.;.;.J.V.'+m+}+m+l.l.S.V.;+-+j+$+$+j+j+;+*+I.J.U.m+*.}+}.}.L.V.J.'+'+V.V.V.;+I.N.#+_+,+-+%+$+j+$+*+@+m I q K ! w ",
"k 3 f E C x n+o+o+T n+p+r+0+r+2+2+o+o+x p+0+4+1+5+s+s+s+p+p+4+<+r+5+<+0+r+p+<+s+3+s+n+n+o+T o+p+s+n+T T t+t+o+t+n+o+m v c W = & ",
"6 v # ) w x u.5.!+ +_+T.6.)+)+ +;+j+$+#+;+J.I.`.Y.%+,+-+*+=+j+++ +_+P.M.M.V.J.++;+N.Q.$+4.Y.c+{+o.}+V.3.M.U.[+'+l.~+m U g H     ",
"N [ z L +.M e.z.^+u+f.C.C.f+f+g+u+:.q.s.!+|.-.c+3.H.E.H.u.8.>+L.l.l.6.}+G.).u.c.8.~.]+O.m.O.{.q.f.f.x.a.a.g.e.(.i.(.m L # b +.1 ",
"$ f q +.U O ).}.).b.c.}.S.{+m.S.R.R.m.l.m+b.b.b.b.].^+r.^+z.(+z.=.c.=.#.5.!+U.'+R.S.l.{+{+b+M.M.P.c+L.n.)+)+H.m+H.H.m ! c Z U r ",
"A f g V U O =.8.c.}.~.[.h.h.c.h.e.z.W.f+d.B.(+e.z.(+C.(+f.^.h.v.c.}.L.~+k.v.~+m+H.}.b.}.K.}+c.F.h.2.h.[.~.s.T.G.}.}.T  .e a U P ",
"6 8 g J V O s+q+q+q+r+s+<+5+q+q+5+4+2+4+2+2+2+2+5+5+<+p+5+5+5+0+n+0+<+r+q+5+3+3+M 5+5+0+n+n+n+n+p+t+t+t+t+v+n+p+n+n+m ! s ~ J P ",
"6 I ~ U J $ h+@+U.K.J.V.o.H.).7.-.$.$.|.u.2.g.h.8.g.<.5.~.u.b.m+h.D.W.W.f.x.8.u.).8.!.}+V.~+_+_+*+N.;+{+T.o.)+F.!.!.T v H L G Q ",
"6 ; t V K $ ;+++K.V.U.V.l.6.G.}.l.n.G.#.v.}.>+m+U.m+l. +*+M._+@+;+-+@+M.;+_+$+Q.M.R.T.6.L.b+-.6.6.~+5.!.!.#.$.>+~+*.x Y y t G Q ",
"r 8 V L 4 M )+6.-.*.k.~.k.}.T.]+6.)+l.6.L.T.U.U.)+++V.V._+3._+I.;+I..+O.O.H.H.F.++{+U.O.[+[+l.6.n.6.}+6.6.I. +3.;+-+T v z q w w ",
"r a L Y w R h+S.d+m+}.<.h.k.=.j.R.]+S.'+m.m.d+p.^.y.R.m.E.E.U.l.J.J.-+_+ +'+E.H.!+6.'+K.)+m+O.V.M.M.o.M.S.b+P.d+F.o.u ! ! I % , ",
"r a > - G R 2+A 1+q+2+q+q+5+r+p+o+p+p+p+r+O 5+4+4+4+Z.3+X.X.4.1+&+8+7+7+|+i+%+-+*+$+8+|+|+3+q+0+T s+M 2+X.2+5+M 1+2+T t > z E % ",
"r Y ..a K u 9.=.1.u.!.!.j.j.7.7.7.).s.k.v.v.}.k.~.8.{.m+>+<.(.f.(.:.f.f._.(.(+(+C.(+C.W.u+e.:.u+y.y.z.D.(.f.:.(.B.B.m y J a K S ",
"k L ) Z E T h.8.g.g.d.d.0.1.~.<.~.).[.<.{.{.h.i.d.d.y.:.d.y.y.(.y.(./+/+A.z.z.:.z.e.].0.g.g.r.d.]._.i.].0.^.h.9.8.[.m ! > ~ E k ",
"k } > * G m g.9.x.^.x.].].^+q.f.f././.A.f.^+q.q././.e.y.A.W.C.W.f+g+g+f+f+e.p.:.k+f+k+f+B.u+/+e.g.].h.[.9.9.v.j.b.b.x y U { J r ",
"k ; Z G W m b+T.R.:+m.b+3.S.:+d+j.]+b.a.r.d.r.d././+d.8.x.8.).E.n.m+x.q.y.y.h.s.7.]+]+9.v.E.j.v.t.H.R.H.t.8.9.b.v.e.m s ) G > 2 ",
"k s { F ~ u 5+0+0+T p+0+<+q+q+<+<+r+o+T p+p+r+r+s+0+0+0+0+0+4+3+1+1+2+Z.4+5+5+5+0+s+3+5+q+4+4+1+2+5+<+p+<+0+r+5+s+5+m g   F U r ",
"6 [ Z D a M ).:+3.3.T.T.'+'+}+}+~+b.v.k.w.}+-.-.}+).!.b.t.~+o.-.o.w.}.}.v.}.w.}.}+m+w.w.!.=.h.=.>+n.l.3.9+ +O.T.w.-.x c V w t P ",
"$ 9 ; K V u T.o.}+6.}+G.E.R.R.T.5.u.=.=.j.).!.s.k.o.R.S.G.~+5.w.).t.{.[.v.k.-.T.R.R.G.~+}+6.T.F.~.v.b.b.5.T.}+F.t.2.m e ~ K V S ",
"0 9 H K +.T v.v.].W.D.D.{.1.8.1.h.h.8.v.v.^.>.b.k.G.3.Q.G.7.}.m+w.F.s.1.v.8.<.b.v.b.}.k.}+}+~.p.g./+k+C.(+W.z.z./+z.x s z K ..1 ",
"N j v & E p+j.d+V.m+m+1.2.].1.).}.d+E.:+V.L.j.d+b+3.[+O.d+E.]+o.n. +_+m.V.:+]+7.]+0.g.f.d.d.b.1.]+k.]+]+^.y.B.A.r.0.u o z U ..B ",
"$ p a & D X 0.v.o.c+ +M.V.m+!+5.1.7.b+b+Q.@+3._+*+ +M.l.-.[+l.P._+M.[+P.3.[+H.E.++V.l.M.M.,+N._+@+h+h+_+_+.+@+[+c+U.x 7 [ W ..S ",
"$ g Y C F T <.8.}.7.K.l.!.).w.~._.].<.D.f+g+f+f+A.0.<.[.[.[.j.R.O.M.)+o.7.]+>+).~+6.M.*.k.<.c.<.H.j.7.7.n.d+7.b.7.:+T 9 g F L B ",
"$ g V S V M 5.~+F.'+_+U.S.n.~+|.8.f.W./+_.u+A./+d.:.(.r.<.t.[._.h.=.7.[.!+m+)+J.++K.'+-.'+3.S.[+-.w.6.}+u.^.:.y.p._.x ` q P b % ",
"A q Y B a M M.b+l.V.=+3.;+;+Q.-+#+#+@+@+@+I.=+@+@+;.{+M.R.[+b+{+ +J.b+P.*+M.T.L.t.m+3.-+,+-+-+3. +;.)+U.J.U.%.V.V.J.X H q 1 n   ",
"N ; J B F u h+M.j+&+7+4.4.8+8+&+#+`.,+$+3.@+,+3.[+S.o.).>+2.0.j.R.P.-+3._+K.t.0.[.^.g.5.~+@+3.S.K.++7.v.n.M.%+9+9+8+v+..z w t A "};
