/* XPM */
static char * coin_sprite_xpm[] = {
"80 16 5 1",
" 	c None",
".	c #180E0E",
"+	c #FFFFFF",
"@	c #B3B1B3",
"#	c #5A595A",
"      ....            ....             ..             ....            ....      ",
"    ..++++..         .++++.           .++.           .++++.         ..++++.     ",
"   .++@@@@++.       .++@+@#.          .+#.          .+@@@@#.       .++@@@@@.    ",
"  .+@@@@@++@+.      .+@+@@#.          .+#.          .+@@@@#.      .+@@@@@@@#.   ",
" .+@@@@+++@+@#.    .+@+++@@#.        .+@@#.        .+@@++@@#.    .+@@@@+@@@++.  ",
" .+@@@+++#+@@#.    .++@+#@@#.        .+@##.        .+@@+#@@#.    .+@@@+@#@++#.  ",
" .+@@+++@+@@@#.    .+@++#@@#.        .+@##.        .+@++#@@#.    .+@@+@@#++@+.  ",
" .+@@++@+#@@@#.    .+@@+#@@#.        .+@##.        .+@@+#@@#.    .+@@@+@++@+#.  ",
" .+@++++@#@@@#.    .+@@+#@@#.        .+@##.        .+@@+#@@#.    .+@@@+++@+@#.  ",
" .+++@+@@#@@@#.    .+@@+#@@#.        .+@##.        .+@@+#@@+.    .+@@@++#+@@#.  ",
" .++@++@@#@@@#.    .+@@+#@@#.        .+@##.        .+@@+#@++.    .+@@++@+@@@#.  ",
" .+@+@@##@@@@#.    .+@@##@@#.        .+###.        .+@@##++#.    .+@++@+@@@@#.  ",
"  .+@@@@@@@@#.     .+@@@@@@#.         .@#.         .+@@@++@+.     .++@+@@@@#.   ",
"   .++@@@@##.       .+@@@@#.          .@#.          .+@++@+.       .++@@@@#.    ",
"    ..####..         .####.           .##.           .++#+.         ..####.     ",
"      ....            ....             ..             ....            ....      "};
